<?xml version="1.0" encoding="utf-8"?>
<!-- Generator: Adobe Illustrator 21.0.2, SVG Export Plug-In . SVG Version: 6.00 Build 0)  -->
<svg version="1.1" id="Layer_1" xmlns="http://www.w3.org/2000/svg" xmlns:xlink="http://www.w3.org/1999/xlink" x="0px" y="0px"
	 width="201px" height="218.3px" viewBox="0 0 201 218.3" style="enable-background:new 0 0 201 218.3;" xml:space="preserve">
<style type="text/css">
	.st0{opacity:6.000000e-02;fill:#333333;}
	.st1{opacity:6.000000e-02;}
	.st2{opacity:6.000000e-02;fill:#FFFFFF;}
	.st3{fill:none;}
	.st4{fill:#FFFFFF;}
</style>
<path class="st0" d="M125.6,116.8v58l-50.2-29v-58"/>
<path class="st1" d="M25.1,145.8l50.3-29v58l-50.3,29 M50.2,102.3l25.2-14.5v29l-25.2,14.5"/>
<path class="st0" d="M100.5,15.3L113.1,8v14.5l-12.6,7.3 M25.1,145.8v29L0,160.3v-29 M50.2,189.3l25.2-14.5v29l-25.2,14.5
	 M175.9,58.8v29l-25.2-14.5v-29"/>
<path class="st1" d="M125.6,58.8l25.1-14.5v29l-25.1,14.5 M100.5,189.3l-25.1-14.5l25.1-14.5l25.1,14.5"/>
<path class="st0" d="M50.2,102.3L25.1,87.8l25.1-14.5l25.2,14.5"/>
<path class="st1" d="M100.5,15.3v29L75.4,29.8v-29"/>
<path class="st0" d="M50.2,44.3l25.2-14.5v29L50.2,73.3"/>
<path class="st1" d="M50.2,44.3v14.5l-12.5-7.3V37 M125.6,58.8v58l-50.2-29v-58 M125.6,116.8l50.3-29v58l-50.3,29"/>
<path class="st2" d="M160.9,61.4l-0.6-0.7l-1.9,1.9l-1.9-1.9h-0.1l-1.9,1.9l-1.9-1.9l-1.9,1.9l-1.9-1.9l-1.9,1.9l-1.9-1.9l-1.9,1.9
	l-1.9-1.9l-0.6,0.7l2.5,2.5L145,62l1.9,1.9l1.9-1.9l1.9,1.9l1.9-1.9l1.9,1.9l2-1.9l1.9,1.9 M25.1,49l-0.6-0.7l-1.9,1.9l-1.9-1.9
	l-1.9,1.9l-1.9-1.9h-0.1l-1.9,1.9L13,48.3l-1.9,1.9l-1.9-1.9l-1.9,1.9l-1.9-1.9L4.8,49l2.5,2.5l1.9-1.9l1.9,1.9l1.9-1.9l1.9,1.9
	l2-1.9l1.9,1.9l1.9-1.9l1.9,1.9"/>
<path class="st1" d="M62.5,14.5L64,16l0.5-0.5l-2-1.9l-1.9,1.9l0.5,0.5"/>
<path class="st1" d="M62.5,16.9l1.5,1.5l0.5-0.5l-2-2l-1.9,2l0.5,0.5"/>
<path class="st1" d="M62.5,19.3l1.5,1.5l0.5-0.5l-2-2l-1.9,2l0.5,0.5"/>
<path class="st1" d="M62.5,21.7l1.5,1.5l0.5-0.5l-2-2l-1.9,2l0.5,0.5"/>
<path class="st1" d="M62.5,24.1l1.5,1.5l0.5-0.5l-2-2l-1.9,2l0.5,0.5"/>
<path class="st1" d="M62.5,26.5l1.5,1.4l0.5-0.5l-2-1.9l-1.9,1.9l0.5,0.5 M40.6,111.3c-1.6,0-3-1.3-3-3c0-1.6,1.3-3,3-3s3,1.3,3,3
	C43.5,110,42.2,111.3,40.6,111.3z M40.6,106.5c-1,0-1.8,0.8-1.8,1.8s0.8,1.8,1.8,1.8s1.8-0.8,1.8-1.8S41.6,106.5,40.6,106.5z
	 M81.1,156.8h1.2v5.5h-1.2V156.8z M99.5,6.5l-3.3-3.3L99.5,0l3.3,3.3L99.5,6.5z M97.8,3.3l1.6,1.6l1.6-1.6l-1.6-1.6
	C99.4,1.7,97.8,3.3,97.8,3.3z M134.9,91.5l-0.8-0.9l-1.5,1.5l-1.5-1.5l-0.9,0.9l1.5,1.5l-1.5,1.5l0.9,0.9l1.5-1.6l1.5,1.6l0.8-0.9
	l-1.5-1.5"/>
<g class="st1">
	<path d="M40.8,14.9l3.2-3.2l-2.3-1.4l-0.9,0.9l1.8,1.8"/>
	<path d="M40.8,14.9l1.8-1.9l-1.8-1.8 M50.2,19.1l-4-4l-5.4,5.3l1.8,1.9l-1.8,1.8l5.4-5.3l4,4"/>
	<path d="M40.8,20.4v3.7l1.8-1.8 M50.2,28.4l-4-4.1l-5.4,5.4l1.8,1.8l-1.8,1.8l5.4-5.3l4,4.1"/>
	<path d="M40.8,29.7v3.6l1.8-1.8 M50.2,37.6l-4-4.1l-5.3,5.3l2.3,1.4l3-3l4,4.1 M30.1,5.6l1.2-1.3l-1.2-0.7 M31.9,13l-1.8,1.9
		l5.3-5.4l5.4,5.4v-3.7l-3.3-3.3l-2.6-1.5l-4.8,4.8"/>
	<path d="M30.1,11.2v3.7l1.8-1.9 M40.8,20.4l-5.4-5.3l-5.3,5.3l1.8,1.9l-1.8,1.8l5.3-5.3l5.4,5.3"/>
	<path d="M30.1,20.4v3.7l1.8-1.8 M40.8,29.7l-5.4-5.4l-5.3,5.4l1.8,1.8l-1.4,1.4l4.9-4.9l5.4,5.3"/>
	<path d="M30.1,29.7v2.9l0.4,0.3l1.4-1.4 M35.4,33.5l-1.3,1.4l6.5,3.8 M30.1,5.6v-2l-4.9-2.8 M30.1,11.2l-5-4.9v3.6l5,5 M30.1,20.4
		l-5-4.9v3.7l5,4.9 M30.1,29.7l-5-5v3.7l3.2,3.2l1.8,1"/>
</g>
<g class="st1">
	<path d="M147.2,171.2l-0.7,0.7h1.5 M139.7,171.2l-0.7,0.7h1.4 M132.2,171.2l-0.8,0.7h1.5"/>
	<path d="M143.5,171.5l-3.8-3.7l-3.8,3.7l-1.7-1.7l-0.7,0.4l1.7,1.7h1.5l3-3l3,3h1.5l3-3l3.1,3h0.4v-0.7l-3.5-3.4"/>
	<path d="M135.9,169.2l0.9-0.9l-1.1,0.7 M143.5,168.1l-2.3-2.3l-0.7,0.4l3,3l3.7-3.8l3.5,3.5v-1.1l-3.5-3.5"/>
	<path d="M143.5,165.8l3-3l-2.8,1.5l-0.2,0.3l-0.1-0.1l-0.7,0.5 M147.5,162.2l3.2,3.3v-1.2l-2.5-2.5 M150.7,162v-1.1l-0.3-0.4
		l-0.8,0.4 M132.2,188.5l-0.8,0.8h1.5 M139.7,188.5l-0.7,0.8h1.4 M147.2,188.5l-0.7,0.8h1.5"/>
	<path d="M132.2,186.2l3,3.1h1.5l3-3.1l3,3.1h1.5l3-3.1l3.1,3.1h0.4v-0.7l-3.5-3.5l-3.7,3.7l-3.8-3.7l-3.8,3.7l-3.7-3.7l-3.8,3.7
		l-2.8-2.8v1.2l2.1,2.1h1.4"/>
	<path d="M132.2,182.8l3.7,3.7l3.8-3.7l3.8,3.7l3.7-3.7l3.5,3.5v-1.2l-3.5-3.5l-3.7,3.8l-3.8-3.8l-3.8,3.8l-3.7-3.8l-3.8,3.8
		l-2.8-2.8v1.1l2.8,2.8"/>
	<path d="M132.2,179.3l3.7,3.8l3.8-3.8l3.8,3.8l3.7-3.8l3.5,3.5v-1.2l-3.5-3.5l-3.7,3.8l-3.8-3.8l-3.8,3.8l-3.7-3.8l-3.8,3.8
		l-2.8-2.8v1.2l2.8,2.8"/>
	<path d="M143.5,178.5l-3.8-3.8l-3.8,3.8l-3.7-3.8l-3.8,3.8l-2.8-2.8v1.1l2.8,2.8l3.8-3.8l3.7,3.8l3.8-3.8l3.8,3.8l3.7-3.8l3.5,3.5
		v-1.1l-3.5-3.5"/>
	<path d="M146.5,171.9l-3,3.1l-3.1-3.1H139l-3.1,3.1l-3-3.1h-1.5l-3,3.1l-1.1-1.2l-0.8,0.5l1.9,1.8l3.8-3.7l3.7,3.7l3.8-3.7l3.8,3.7
		l3.7-3.7l3.5,3.5v-1.2l-2.7-2.8"/>
	<path d="M135.9,172.7l0.8-0.8h-1.5 M143.5,172.7l0.7-0.8h-1.5 M150.7,172.4v-0.5h-0.4 M125.6,203.4v0.4l0.3-0.2 M128.1,202.4
		l-2.5-2.5v1.1l1.8,1.8 M132.2,198.9l-2.6,2.6l3.3-1.9 M139.7,195.5l-0.5,0.5l0.6-0.4"/>
	<path d="M132.2,196.6l2.1,2.2l0.8-0.4l-2.9-2.9l-3.8,3.7l-2.8-2.8v1.2l2.8,2.8"/>
	<path d="M132.2,193.1l3.7,3.8l3.8-3.8l1.6,1.7l0.7-0.5l-2.3-2.3l-3.8,3.8l-3.7-3.8l-3.8,3.8l-2.8-2.8v1.1l2.8,2.8"/>
	<path d="M148,189.3h-1.5l-3,3l-3.1-3H139l-3.1,3l-3-3h-1.5l-3,3l-2.8-2.8v1.2l2.8,2.8l3.8-3.8l3.7,3.8l3.8-3.8l3.8,3.8l3.7-3.8
		l1.1,1l0.7-0.4 M150.5,189.5l0.2-0.2h-0.4"/>
	<path d="M129.1,189.3h-1.4l0.7,0.7 M135.9,190l0.8-0.7h-1.5 M143.5,190l0.7-0.7h-1.5"/>
</g>
<g class="st1">
	<path class="st3" d="M178.7,136.9l1.3-1.3l1.3,1.3l-1.3,1.3L178.7,136.9z M183.3,143.7l1.3,1.3l1.3-1.3l-1.3-1.4L183.3,143.7
		 M187.9,136.9l1.3-1.3l1.3,1.3l-1.3,1.3L187.9,136.9z M197.1,150.5l1.3-1.3l1.3,1.3l-1.3,1.3L197.1,150.5z M187.9,150.4l1.3-1.3
		l1.3,1.3l-1.3,1.3L187.9,150.4z M197.1,137l1.3-1.3l1.3,1.3l-1.3,1.3L197.1,137z M192.5,130.1l1.4,1.4l1.3-1.4l-1.3-1.3
		L192.5,130.1 M192.5,143.7l1.4,1.3l1.3-1.3l-1.3-1.4L192.5,143.7 M183.3,130.1l1.3,1.4l1.3-1.4l-1.3-1.3L183.3,130.1 M178.7,123.3
		l1.3-1.3l1.3,1.3l-1.3,1.3L178.7,123.3z"/>
	<path d="M193.9,127.4v1.4l1.3,1.3h1.4L193.9,127.4 M201,143.7v-0.6l-0.6,0.6 M193.9,141v1.3l1.3,1.4h1.4L193.9,141 M201,136.7
		l-2.5-2.5l-2.7,2.7l2.7,2.7l2.5-2.5V136.7z M197.1,136.9l1.3-1.3l1.3,1.3l-1.3,1.3L197.1,136.9z"/>
	<path d="M195.2,130.1l-1.3,1.4v1.3l2.7-2.7H195.2 M201,157.2v-0.6l-0.6,0.6 M193.9,154.5v1.4l0.7,0.7l1,0.6h1L193.9,154.5
		 M201,150.2l-2.5-2.5l-2.7,2.7l2.7,2.7l2.5-2.5V150.2z M197.1,150.4l1.3-1.3l1.3,1.3l-1.3,1.3L197.1,150.4z M200.4,143.7l0.6,0.6
		v-0.6H200.4 M195.2,143.7l-1.3,1.3v1.4l2.7-2.7H195.2 M200.4,157.2l0.6,0.6v-0.6H200.4 M196.2,157.6l0.4-0.4h-1 M193.9,128.8v-1.4
		l-2.8,2.7h1.4 M184.6,128.8l1.3,1.3h1.4l-2.7-2.7 M189.2,126.1l1-1l-0.9-0.5l-0.1,0.1l-0.4-0.4l-2-1.2l-0.3,0.3 M193.9,142.3V141
		l-2.8,2.7h1.4 M184.6,142.3l1.3,1.4h1.4l-2.7-2.7 M189.2,134.2l-2.7,2.7l2.7,2.7l2.7-2.7L189.2,134.2z M187.9,136.9l1.3-1.3
		l1.3,1.3l-1.3,1.3L187.9,136.9z"/>
	<path d="M192.5,130.1h-1.4l2.8,2.7v-1.3 M185.9,130.1l-1.3,1.4v1.3l2.7-2.7H185.9 M192.8,155.6l0.9,0.5l0.2-0.2v-1.4 M186.5,150.4
		l2.7,2.7l2.7-2.7l-2.7-2.7L186.5,150.4z M189.2,151.8l-1.3-1.3l1.3-1.3l1.3,1.3L189.2,151.8z M192.5,143.7h-1.4l2.8,2.7V145
		 M185.9,143.7l-1.3,1.3v1.4l2.7-2.7H185.9 M184.6,128.8v-1.4l-2.7,2.7h1.4 M175.9,127.9v1.4l0.8,0.8h1.4 M177.3,123.4l2.7,2.7
		l2.7-2.7l-2.7-2.7L177.3,123.4z M180,124.7l-1.3-1.3l1.3-1.3l1.3,1.3L180,124.7z M175.9,118.8l1.2-1.3l-0.8-0.5l-0.4,0.4
		 M184.6,142.3V141l-2.7,2.7h1.4 M175.9,141.4v1.4l0.8,0.9h1.4 M177.3,136.9l2.7,2.7l2.7-2.7l-2.7-2.7L177.3,136.9z M180,138.2
		l-1.3-1.3l1.3-1.3l1.3,1.3L180,138.2z M183.3,130.1h-1.4l2.7,2.7v-1.3"/>
	<path d="M175.9,132.4l2.2-2.3h-1.4l-0.8,0.9 M180,147.7l-0.3,0.3l1.4,0.8 M183.3,143.7h-1.4l2.7,2.7V145 M178.1,143.7h-1.4
		l-0.8,0.8v1.3L178.1,143.7"/>
</g>
<g class="st1">
	<path d="M21.4,96l0.1-2.6l0.6,0L22,96L21.4,96z M24.7,97l0.4-0.3v-0.6l-0.7,0.3 M25,93.3h0.1v-2.6h-0.2 M22.3,90.7l0.3-0.5
		l-0.9-0.4l-0.6,0.3 M21.5,115.2l0.1-2.6l0.6,0l-0.1,2.6L21.5,115.2z M25.1,115.3l-0.7,0.4l0.3,0.5l0.4-0.2 M22.8,107.4l1.8-1.9
		l0.4,0.4l-1.8,1.9L22.8,107.4z M25,112.5h0.1v-2.6h-0.2 M22.3,110l0.3-0.6l-2-0.9v0.7 M23.6,103.5l0.8-2.5l0.6,0.2l-0.8,2.5
		L23.6,103.5z M21.3,105.4l-0.3-0.5l-0.4,0.2v0.6 M20.6,98.1v0.2l1.8,1.7l0.5-0.5l-2-1.7 M20.9,117l-0.3,0.4v0.2l1.2,1.1l0.6-0.3
		 M17.6,97.1h0.9l0.8-0.8l-0.5-0.4 M18.5,94l0.8-2.4l-0.5-0.2l-0.1,0.1l-0.8,2.3 M13,96.4l2.3-1.2l0.3,0.5l-2.3,1.2L13,96.4z
		 M19.3,115.5l-0.5-0.4l-1.2,1.3h0.9 M17.9,113.1l0.9-2.5l0.6,0.2l-0.9,2.5L17.9,113.1z M10.1,115.3l0.1-2.6l0.6,0l-0.1,2.6
		L10.1,115.3z M13,115.6l2.3-1.2l0.3,0.5l-2.3,1.2L13,115.6z"/>
	<path d="M20.6,108.5l-0.4-0.2l-0.2,0.5l0.6,0.4 M11.3,107.5l1.8-1.9l0.4,0.4l-1.8,1.9L11.3,107.5z M14.8,107.8l0.4-0.4l1.9,1.8
		l-0.4,0.4L14.8,107.8z M15.8,105.7l0.1-2.6l0.6,0l-0.1,2.6L15.8,105.7z M13.4,109.9l0.6,0l0.1,2.6l-0.6,0L13.4,109.9z M20.6,105.1
		l-1.9,0.9l0.3,0.6l1.6-0.9 M11.2,109.4l-2-0.9v0.7l1.7,0.8 M12.1,103.5L13,101l0.6,0.2l-0.8,2.5L12.1,103.5z M9.9,105.4l-0.3-0.5
		l-0.4,0.2v0.6 M17,97.8l0.5,0.4l1-1.1h-0.9 M20.5,98.2l0.1,0.1v-0.2 M19.1,100.3l0.6,0l0.1,2.6l-0.6,0L19.1,100.3z M14.2,99.3
		l0.3-0.5l2.4,1.1l-0.3,0.5L14.2,99.3z M9.5,97.8l-0.3,0.3v0.2L11,100l0.4-0.5 M12.2,122.7l0.8-2.5l0.6,0.2l-0.8,2.5L12.2,122.7z
		 M9.9,124.7l-0.3-0.6l-0.4,0.2v0.7 M18.5,116.4h-0.9L17,117l0.5,0.4 M20.5,117.5l0.1,0.1v-0.2 M19.8,119.5h-0.6v0.7l0.6-0.3
		 M14.2,118.5l0.3-0.5l2.4,1.1l-0.3,0.5L14.2,118.5z M11.4,118.8L9.5,117l-0.3,0.4v0.2l1.8,1.6 M7.8,115.5l-0.4-0.4l-1.2,1.3h0.9
		 M6.5,113.1l0.8-2.5l0.6,0.2l-0.8,2.5L6.5,113.1z M1.6,115.6l2.3-1.2l0.3,0.5l-2.3,1.2L1.6,115.6z M8.8,108.3l-0.3,0.5l0.7,0.4
		v-0.7 M2.1,105.9l-0.4-0.4L0,107.3v0.2l0.4,0.3 M3.4,107.8l0.4-0.4l1.9,1.8l-0.4,0.4L3.4,107.8z M4.4,105.7l0.1-2.6l0.6,0L5,105.7
		L4.4,105.7z M2,109.9l0.6,0l0.1,2.6l-0.6,0L2,109.9z M9.2,105.1L7.3,106l0.3,0.6l1.6-0.9 M1.3,103.7l0.9-2.5L2,101.1l-0.5,0.3
		l-0.7,2.1 M9.1,98.2l0.1,0.1v-0.2 M7.8,100.3l0.6,0l0.1,2.6l-0.6,0L7.8,100.3z M5.4,99.8l-0.6-0.3l-0.6,0.4l1,0.4 M2.1,125.2
		l-0.4-0.5L0,126.6v0.1l0.4,0.4 M3.4,127.1l1.5,1.4l0.5-0.3l-1.6-1.5 M4.3,124.9l0.1-2.6l0.6,0L4.9,125L4.3,124.9z M2,129.2l0.1,0.9
		l0.6-0.3l-0.1-0.7 M9.2,125v-0.7l-1.9,1l0.3,0.5 M0.8,122.7l0.8-2.5l0.6,0.2l-0.8,2.5L0.8,122.7z M7.1,116.4H6.2L5.6,117l0.5,0.4
		 M9.1,117.5l0.1,0.1v-0.2 M7.8,119.5l0.6,0l0.1,2.6l-0.6,0L7.8,119.5z M2.8,118.5l0.3-0.5l2.3,1.1l-0.3,0.5L2.8,118.5z"/>
</g>
<g class="st1">
	<path d="M49.9,131.5l0.3-0.2l-0.4-0.3v0.5 M49.8,131l-0.3-0.1l-0.1,0.5l0.4,0.1 M45.6,128.6l-0.7-0.4l-0.8,3.2l0.8,0.2 M41,126
		l-0.7-0.5l-1.5,5.9l0.8,0.2 M35.7,122.9l-1.8,6.9v1.7l0.3,0.1l2.2-8.3 M49.4,131.6v0.2l0.3-0.2 M44.9,131.8l-0.8-0.2l-1,3.8l1-0.6
		 M39.6,131.8l-0.8-0.2l-1.9,7.4l1-0.6 M34.3,131.8l-0.4-0.1v1.7 M33.5,131.4l0.4,0.1v-1.7 M31.8,120.6l-0.7-0.4l-3,11.2l0.8,0.2
		 M27.2,118l-0.7-0.4l-3.7,13.8l0.8,0.2 M20.7,119.4l-2.8,10.4v1.7l0.4,0.1l3.4-12.8 M33.9,133.4v-1.7l-0.4-0.1l-2.9,11l1-0.5
		 M28.2,131.6l-3.6,13.9l0.5,0.3l0.3-0.1l3.6-13.9 M23.7,131.8l-0.8-0.2l-3,11.2l0.8,0.4 M18.4,131.8l-0.5-0.1v1.7 M17.5,131.4
		l0.4,0.1v-1.7 M15.4,122.4l-1,0.6l-2.2,8.4l0.8,0.2 M9.2,126l-1,0.6l-1.3,4.8l0.8,0.2 M2,130.1v1.4l0.4,0.1l0.5-2 M17.9,133.4v-1.7
		l-0.3-0.1l-2.3,8.5l0.8,0.5 M13.1,131.8l-0.8-0.2l-1.6,5.9l0.8,0.4 M7.7,131.8L7,131.6l-0.9,3.2l0.7,0.4 M2.2,132.6l0.2-0.8
		L2,131.7v0.8 M1.9,130.2l-0.3,1.2l0.4,0.1L1.9,130.2 M2,131.7l-0.4-0.1l-0.1,0.6l0.5,0.3"/>
</g>
<g class="st1">
	<path class="st3" d="M134.5,27.9c0,2.2,1.8,4,4,4s4-1.8,4-4s-1.8-4-4-4S134.5,25.7,134.5,27.9z M138.4,24.6c1.8,0,3.3,1.5,3.3,3.3
		s-1.5,3.3-3.3,3.3s-3.3-1.5-3.3-3.3S136.6,24.6,138.4,24.6z"/>
	<path class="st3" d="M138.4,30.8c1.6,0,2.9-1.3,2.9-2.9S140,25,138.4,25c-1.6,0-2.9,1.3-2.9,2.9S136.8,30.8,138.4,30.8z
		 M138.4,26.3c0.9,0,1.6,0.7,1.6,1.6s-0.7,1.6-1.6,1.6c-0.9,0-1.6-0.7-1.6-1.6S137.6,26.3,138.4,26.3z M118.9,27.9
		c0,3.1,2.5,5.7,5.7,5.7s5.7-2.5,5.7-5.7c0-3.1-2.5-5.7-5.7-5.7S118.9,24.8,118.9,27.9z M124.6,23.4c2.5,0,4.5,2,4.5,4.5
		s-2,4.5-4.5,4.5s-4.5-2-4.5-4.5S122.1,23.4,124.6,23.4z"/>
	<path class="st3" d="M124.6,31.9c2.2,0,4-1.8,4-4s-1.8-4-4-4s-4,1.8-4,4S122.4,31.9,124.6,31.9z M124.6,24.6c1.8,0,3.3,1.5,3.3,3.3
		s-1.5,3.3-3.3,3.3s-3.3-1.5-3.3-3.3S122.8,24.6,124.6,24.6z M107.8,27.9c0,1.6,1.3,2.9,2.9,2.9s2.9-1.3,2.9-2.9s-1.3-2.9-2.9-2.9
		S107.8,26.3,107.8,27.9z M110.7,26.3c0.9,0,1.6,0.7,1.6,1.6s-0.7,1.6-1.6,1.6s-1.6-0.7-1.6-1.6S109.9,26.3,110.7,26.3z"/>
	<path class="st3" d="M124.6,30.8c1.6,0,2.9-1.3,2.9-2.9s-1.3-2.9-2.9-2.9s-2.9,1.3-2.9,2.9S123,30.8,124.6,30.8z M124.6,26.3
		c0.9,0,1.6,0.7,1.6,1.6s-0.7,1.6-1.6,1.6s-1.6-0.7-1.6-1.6S123.7,26.3,124.6,26.3z"/>
	<path d="M145.9,27.9h0.7v-0.5L146,27C146,27.3,145.9,27.6,145.9,27.9L145.9,27.9z M138.4,23.4v0.5c2.2,0,4,1.8,4,4h0.5
		C142.9,25.4,140.9,23.4,138.4,23.4z"/>
	<path d="M141.4,27.9h0.4c0-1.8-1.5-3.3-3.3-3.3V25C140.1,25,141.4,26.3,141.4,27.9L141.4,27.9z M144.6,26.2l-1-0.6
		c0.3,0.7,0.5,1.4,0.5,2.2h0.7C144.8,27.3,144.7,26.8,144.6,26.2z M140,27.9c0-0.9-0.7-1.6-1.6-1.6v1.6H140z M140.7,35.5l3.2-1.8
		C142.7,34,141.6,34.6,140.7,35.5z M148.9,30.8l0.4-0.3c-0.5-0.6-0.9-1.3-1-2.2l-0.5-0.3C147.9,29.1,148.3,30.1,148.9,30.8z
		 M150.3,30c-0.3-0.3-0.5-0.6-0.6-0.9l-0.5-0.3c0.2,0.5,0.4,1,0.8,1.4L150.3,30z M145.9,27.9c0,1.5,0.5,2.8,1.3,3.9l0.6-0.4
		c-0.8-1-1.2-2.2-1.2-3.5H145.9L145.9,27.9z M142.4,27.9c0,2.2-1.8,4-4,4v0.5c2.5,0,4.5-2,4.5-4.5C142.9,27.9,142.4,27.9,142.4,27.9
		z"/>
	<path d="M141.4,27.9c0,1.6-1.3,2.9-2.9,2.9v0.4c1.8,0,3.3-1.5,3.3-3.3H141.4L141.4,27.9z M144.8,27.9h-0.7c0,3.1-2.5,5.7-5.7,5.7
		v0.7C142,34.3,144.8,31.4,144.8,27.9z M138.4,29.5c0.9,0,1.6-0.7,1.6-1.6h-1.6V29.5z M138.4,23.9v-0.5c-2.5,0-4.5,2-4.5,4.5h0.5
		C134.5,25.7,136.3,23.9,138.4,23.9z"/>
	<path d="M135.5,27.9c0-1.6,1.3-2.9,2.9-2.9v-0.4c-1.8,0-3.3,1.5-3.3,3.3H135.5L135.5,27.9z M137.8,22.3l-1-0.6
		c-2.7,0.7-4.8,3.2-4.8,6.2h0.7C132.8,25,135,22.6,137.8,22.3z M138.4,27.9v-1.6c-0.9,0-1.6,0.7-1.6,1.6H138.4z M128.6,27.9h0.5
		c0-2.5-2-4.5-4.5-4.5v0.5C126.8,23.9,128.6,25.7,128.6,27.9z"/>
	<path d="M127.5,27.9h0.4c0-1.8-1.5-3.3-3.3-3.3V25C126.2,25,127.5,26.3,127.5,27.9z M124.6,21.5v0.7c3.1,0,5.7,2.5,5.7,5.7h0.7
		C131,24.4,128.1,21.5,124.6,21.5z M126.2,27.9c0-0.9-0.7-1.6-1.6-1.6v1.6H126.2z M131.5,20.4c0.7,0,1.4-0.2,2.1-0.5l-0.5-0.3
		c-0.5,0.2-1,0.3-1.5,0.3c-2,0-3.7-1.5-3.9-3.5l-0.5-0.3C127.2,18.5,129.1,20.4,131.5,20.4z"/>
	<path d="M131.5,19.2c0.3,0,0.5,0,0.8-0.1l-0.5-0.3h-0.2c-1.2,0-2.2-0.7-2.7-1.7l-0.5-0.3C128.8,18.2,130,19.2,131.5,19.2
		L131.5,19.2z"/>
	<path d="M131.5,22.3c1.5,0,2.8-0.5,3.9-1.3l-0.7-0.4c-0.9,0.6-2,1-3.2,1c-3.1,0-5.7-2.5-5.7-5.7v-0.5l-0.3-0.2l-0.4,0.3v0.4
		C125.1,19.4,128,22.3,131.5,22.3z M131.5,35.4c-2.5,0-4.5,2-4.5,4.5c0,1.1,0.4,2.1,1.1,2.9l0.4-0.3c-0.6-0.7-1-1.6-1-2.6
		c0-2.2,1.8-4,4-4c1.8,0,3.2,1.2,3.8,2.8l0.5-0.3C135.1,36.7,133.5,35.4,131.5,35.4z"/>
	<path d="M131.5,36.6c-1.8,0-3.3,1.5-3.3,3.3c0,0.9,0.4,1.7,0.9,2.3l0.3-0.2c-0.6-0.5-0.9-1.3-0.9-2.1c0-1.6,1.3-2.9,2.9-2.9
		c1.4,0,2.5,1,2.8,2.2l0.3-0.2C134.3,37.6,133,36.6,131.5,36.6z"/>
	<path d="M125.9,39.9c0-3.1,2.5-5.7,5.7-5.7c2.4,0,4.4,1.5,5.3,3.6l0.6-0.4c-1-2.3-3.2-3.9-5.9-3.9c-3.5,0-6.4,2.9-6.4,6.4
		c0,1.5,0.5,2.8,1.3,3.9l0.6-0.4C126.3,42.4,125.9,41.2,125.9,39.9L125.9,39.9z"/>
	<path d="M133.1,39.9c0-0.9-0.7-1.6-1.6-1.6c-0.9,0-1.6,0.7-1.6,1.6c0,0.6,0.3,1.1,0.8,1.4L133.1,39.9L133.1,39.9z M134.5,27.9H134
		c0,2.5,2,4.5,4.5,4.5v-0.5C136.3,31.9,134.5,30.1,134.5,27.9z"/>
	<path d="M135.5,27.9h-0.4c0,1.8,1.5,3.3,3.3,3.3v-0.4C136.8,30.8,135.5,29.5,135.5,27.9L135.5,27.9z M138.4,34.3v-0.7
		c-3.1,0-5.7-2.5-5.7-5.7H132C132.1,31.4,134.9,34.3,138.4,34.3z M136.8,27.9c0,0.9,0.7,1.6,1.6,1.6v-1.6H136.8z M128.6,27.9
		c0,2.2-1.8,4-4,4v0.5c2.5,0,4.5-2,4.5-4.5C129.1,27.9,128.6,27.9,128.6,27.9z"/>
	<path d="M127.5,27.9c0,1.6-1.3,2.9-2.9,2.9v0.4c1.8,0,3.3-1.5,3.3-3.3H127.5z M130.2,27.9c0,3.1-2.5,5.7-5.7,5.7v0.7
		c3.5,0,6.4-2.9,6.4-6.4H130.2z M124.6,29.5c0.9,0,1.6-0.7,1.6-1.6h-1.6V29.5z M120.6,27.9c0-2.2,1.8-4,4-4v-0.5
		c-2.5,0-4.5,2-4.5,4.5H120.6z"/>
	<path d="M121.7,27.9c0-1.6,1.3-2.9,2.9-2.9v-0.4c-1.8,0-3.3,1.5-3.3,3.3H121.7z M124.6,22.2v-0.7c-3.5,0-6.4,2.9-6.4,6.4h0.7
		C118.9,24.8,121.5,22.2,124.6,22.2z M124.6,27.9v-1.6c-0.9,0-1.6,0.7-1.6,1.6H124.6z M111.4,23.5l-0.6,0.4V24c2.2,0,4,1.8,4,4h0.5
		C115.2,25.6,113.5,23.8,111.4,23.5z"/>
	<path d="M110.7,24.6V25c1.6,0,2.9,1.3,2.9,2.9h0.4C114.1,26.1,112.6,24.6,110.7,24.6z M113.6,22.2l-0.8,0.4
		c2.1,0.8,3.6,2.9,3.6,5.3h0.7C117.1,25.4,115.7,23.2,113.6,22.2z M112.3,27.9c0-0.9-0.7-1.6-1.6-1.6v1.6H112.3z M117.7,19.9
		l-0.8,0.4c0.3,0,0.5,0.1,0.8,0.1c1.9,0,3.6-1.2,4.2-3l-0.8,0.4C120.4,19.1,119.1,19.9,117.7,19.9z"/>
	<path d="M115.5,21.1l-0.8,0.4c0.9,0.5,1.9,0.7,2.9,0.7c3.4,0,6.2-2.7,6.4-6.1l-0.8,0.4c-0.4,2.8-2.7,4.9-5.6,4.9
		C116.9,21.5,116.2,21.4,115.5,21.1z M117.7,35.4c-1.6,0-3,0.8-3.8,2.1l0.4,0.3c0.7-1.1,1.9-1.8,3.3-1.8c2.2,0,4,1.8,4,4
		c0,0.7-0.2,1.3-0.5,1.8l0.4,0.3c0.3-0.6,0.5-1.3,0.5-2.1C122.2,37.4,120.1,35.4,117.7,35.4z"/>
	<path d="M117.7,36.6c-1.2,0-2.2,0.6-2.8,1.5l0.3,0.2c0.5-0.8,1.4-1.3,2.4-1.3c1.6,0,2.9,1.3,2.9,2.9c0,0.5-0.1,0.9-0.3,1.3l0.3,0.2
		c0.2-0.4,0.4-0.9,0.4-1.5C121,38.1,119.5,36.6,117.7,36.6z"/>
	<path d="M123.3,42.9c0.5-0.9,0.8-1.9,0.8-3c0-3.5-2.9-6.4-6.4-6.4c-2.3,0-4.3,1.2-5.4,3l0.6,0.4c1-1.6,2.8-2.7,4.8-2.7
		c3.1,0,5.7,2.5,5.7,5.7c0,1-0.2,1.9-0.7,2.7L123.3,42.9z"/>
	<path d="M117.7,38.3c-0.5,0-1,0.3-1.3,0.6l2.7,1.6c0.1-0.2,0.1-0.4,0.1-0.6C119.3,39,118.6,38.3,117.7,38.3z M120.6,27.9h-0.5
		c0,2.5,2,4.5,4.5,4.5v-0.5C122.4,31.9,120.6,30.1,120.6,27.9z"/>
	<path d="M121.7,27.9h-0.4c0,1.8,1.5,3.3,3.3,3.3v-0.4C123,30.8,121.7,29.5,121.7,27.9z M118.9,27.9h-0.7c0,3.5,2.9,6.4,6.4,6.4
		v-0.7C121.5,33.6,118.9,31,118.9,27.9z M123,27.9c0,0.9,0.7,1.6,1.6,1.6v-1.6H123z M114.7,27.9c0,2.2-1.8,4-4,4v0.5
		c2.5,0,4.5-2,4.5-4.5C115.2,27.9,114.7,27.9,114.7,27.9z"/>
	<path d="M113.7,27.9c0,1.6-1.3,2.9-2.9,2.9v0.4c1.8,0,3.3-1.5,3.3-3.3H113.7z M116.4,27.9c0,3.1-2.5,5.7-5.7,5.7v0.7
		c3.5,0,6.4-2.9,6.4-6.4C117.1,27.9,116.4,27.9,116.4,27.9z M110.7,29.5c0.9,0,1.6-0.7,1.6-1.6h-1.6V29.5z M107.4,25.8l-0.8,0.5
		c-0.2,0.5-0.3,1.1-0.3,1.7h0.5C106.8,27.1,107,26.4,107.4,25.8z M110.6,23.9h0.2v-0.1L110.6,23.9z M110.7,25v-0.4
		c-1.8,0-3.3,1.5-3.3,3.3h0.4C107.8,26.3,109.1,25,110.7,25z M105.2,27.1l-0.8,0.4v0.4h0.7C105.1,27.6,105.1,27.3,105.2,27.1z
		 M110.7,27.9v-1.6c-0.9,0-1.6,0.7-1.6,1.6H110.7z"/>
	<path d="M106.8,27.9h-0.5c0,2.5,2,4.5,4.5,4.5v-0.5C108.6,31.9,106.8,30.1,106.8,27.9z"/>
	<path d="M107.8,27.9h-0.4c0,1.8,1.5,3.3,3.3,3.3v-0.4C109.1,30.8,107.8,29.5,107.8,27.9z M105.1,27.9h-0.7c0,3.5,2.9,6.4,6.4,6.4
		v-0.7C107.6,33.6,105.1,31,105.1,27.9z M109.1,27.9c0,0.9,0.7,1.6,1.6,1.6v-1.6H109.1z M100.5,29.8l0.4,0.2
		c0.1-0.2,0.2-0.4,0.2-0.6L100.5,29.8z M102.5,28.6c-0.1,0.7-0.3,1.4-0.6,2l0.6,0.4c0.4-0.8,0.7-1.8,0.8-2.8L102.5,28.6z"/>
</g>
<g class="st1">
	<path class="st4" d="M122.3,60.1c-0.6,0-1.1,0.5-1.1,1.1h2.1C123.4,60.6,122.9,60.1,122.3,60.1z M121,56.5c0-0.2,0-0.3-0.1-0.5
		l-1-0.6v2.1C120.6,57.6,121,57.1,121,56.5z M122.3,69.3c-0.6,0-1.1,0.5-1.1,1.1h2.1C123.4,69.8,122.9,69.3,122.3,69.3z M124.6,64.7
		c-0.6,0-1.1,0.5-1.1,1.1s0.5,1.1,1.1,1.1c0.5,0,0.9-0.3,1-0.8v-0.5C125.5,65,125.1,64.7,124.6,64.7z M121,65.8
		c0-0.6-0.5-1.1-1.1-1.1v2.1C120.6,66.8,121,66.3,121,65.8z"/>
	<path class="st4" d="M121.2,61.1c0,0.6,0.5,1.1,1.1,1.1s1.1-0.5,1.1-1.1H121.2z M122.3,78.5c-0.6,0-1.1,0.5-1.1,1.1h2.1
		C123.4,79,122.9,78.5,122.3,78.5z M124.6,73.9c-0.6,0-1.1,0.5-1.1,1.1s0.5,1.1,1.1,1.1c0.5,0,0.9-0.3,1-0.8v-0.5
		C125.5,74.3,125.1,73.9,124.6,73.9z M120,73.9V76c0.6,0,1.1-0.5,1.1-1.1S120.6,73.9,120,73.9z M121.2,70.4c0,0.6,0.5,1.1,1.1,1.1
		s1.1-0.5,1.1-1.1H121.2z M122.3,87.8c-0.6,0-1.1,0.5-1.1,1.1h2.1C123.4,88.3,122.9,87.8,122.3,87.8z M124.6,83.2
		c-0.6,0-1.1,0.5-1.1,1.1s0.5,1.1,1.1,1.1c0.5,0,0.9-0.3,1-0.8V84C125.5,83.5,125.1,83.2,124.6,83.2z M121,84.2
		c0-0.6-0.5-1.1-1.1-1.1v2.1C120.6,85.3,121,84.8,121,84.2z M121.2,79.6c0,0.6,0.5,1.1,1.1,1.1s1.1-0.5,1.1-1.1H121.2z M122.3,97
		c-0.6,0-1.1,0.5-1.1,1.1h2.1C123.4,97.5,122.9,97,122.3,97z M125.6,93.2c-0.1-0.5-0.5-0.8-1-0.8c-0.6,0-1.1,0.5-1.1,1.1
		s0.5,1.1,1.1,1.1c0.5,0,0.9-0.3,1-0.8C125.6,93.8,125.6,93.2,125.6,93.2z M121,93.5c0-0.6-0.5-1.1-1.1-1.1v2.1
		C120.6,94.5,121,94.1,121,93.5z"/>
	<path class="st4" d="M121.2,88.8c0,0.6,0.5,1.1,1.1,1.1s1.1-0.5,1.1-1.1H121.2z M122.3,106.2c-0.6,0-1.1,0.5-1.1,1.1h2.1
		C123.4,106.7,122.9,106.2,122.3,106.2z M125.6,102.4c-0.1-0.5-0.5-0.8-1-0.8c-0.6,0-1.1,0.5-1.1,1.1s0.5,1.1,1.1,1.1
		c0.5,0,0.9-0.3,1-0.8C125.6,103,125.6,102.4,125.6,102.4z M121,102.7c0-0.6-0.5-1.1-1.1-1.1v2.1C120.6,103.8,121,103.3,121,102.7z
		 M121.2,98.1c0,0.6,0.5,1.1,1.1,1.1s1.1-0.5,1.1-1.1H121.2z M125.6,112.2v-0.5c-0.1-0.5-0.5-0.8-1-0.8c-0.6,0-1.1,0.5-1.1,1.1
		s0.5,1.1,1.1,1.1C125.1,113,125.5,112.7,125.6,112.2z M121,111.9c0-0.6-0.5-1.1-1.1-1.1v2.1C120.6,113,121,112.5,121,111.9z
		 M121.2,107.3c0,0.6,0.5,1.1,1.1,1.1s1.1-0.5,1.1-1.1H121.2z M112,51.9h1.7l-1.4-0.8C112.1,51.3,112,51.6,112,51.9z M117.7,60.1
		c-0.6,0-1.1,0.5-1.1,1.1h2.1C118.7,60.6,118.3,60.1,117.7,60.1z M113.1,60.1c-0.6,0-1.1,0.5-1.1,1.1h2.1
		C114.1,60.6,113.6,60.1,113.1,60.1z M118.9,56.5c0,0.6,0.5,1.1,1.1,1.1v-2.1h-0.1C119.3,55.5,118.9,56,118.9,56.5z"/>
	<circle class="st4" cx="115.4" cy="56.5" r="1.1"/>
	<path class="st4" d="M110.7,55.5v2.1c0.6,0,1.1-0.5,1.1-1.1S111.3,55.5,110.7,55.5z M112,51.9c0,0.6,0.5,1.1,1.1,1.1
		c0.5,0,0.9-0.4,1-0.9l-0.4-0.2C113.7,51.9,112,51.9,112,51.9z M117.7,69.3c-0.6,0-1.1,0.5-1.1,1.1h2.1
		C118.7,69.8,118.3,69.3,117.7,69.3z M113.1,69.3c-0.6,0-1.1,0.5-1.1,1.1h2.1C114.1,69.8,113.6,69.3,113.1,69.3z M120,66.8v-2.1
		c-0.6,0-1.1,0.5-1.1,1.1S119.4,66.8,120,66.8z"/>
	<circle class="st4" cx="115.4" cy="65.8" r="1.1"/>
	<path class="st4" d="M110.7,64.7v2.1c0.6,0,1.1-0.5,1.1-1.1S111.3,64.7,110.7,64.7z M117.7,62.2c0.6,0,1.1-0.5,1.1-1.1h-2.1
		C116.6,61.7,117.1,62.2,117.7,62.2z M112,61.1c0,0.6,0.5,1.1,1.1,1.1s1.1-0.5,1.1-1.1H112z M117.7,78.5c-0.6,0-1.1,0.5-1.1,1.1h2.1
		C118.7,79,118.3,78.5,117.7,78.5z M113.1,78.5c-0.6,0-1.1,0.5-1.1,1.1h2.1C114.1,79,113.6,78.5,113.1,78.5z M120,73.9
		c-0.6,0-1.1,0.5-1.1,1.1s0.5,1.1,1.1,1.1V73.9z"/>
	<circle class="st4" cx="115.4" cy="75" r="1.1"/>
	<path class="st4" d="M111.8,75c0-0.6-0.5-1.1-1.1-1.1V76C111.3,76.1,111.8,75.6,111.8,75z M116.6,70.4c0,0.6,0.5,1.1,1.1,1.1
		s1.1-0.5,1.1-1.1H116.6z M112,70.4c0,0.6,0.5,1.1,1.1,1.1s1.1-0.5,1.1-1.1H112z M117.7,87.8c-0.6,0-1.1,0.5-1.1,1.1h2.1
		C118.7,88.3,118.3,87.8,117.7,87.8z M113.1,87.8c-0.6,0-1.1,0.5-1.1,1.1h2.1C114.1,88.3,113.6,87.8,113.1,87.8z M120,85.3v-2.1
		c-0.6,0-1.1,0.5-1.1,1.1S119.4,85.3,120,85.3z"/>
	<circle class="st4" cx="115.4" cy="84.2" r="1.1"/>
	<path class="st4" d="M111.8,84.2c0-0.6-0.5-1.1-1.1-1.1v2.1C111.3,85.3,111.8,84.8,111.8,84.2z M116.6,79.6c0,0.6,0.5,1.1,1.1,1.1
		s1.1-0.5,1.1-1.1H116.6z M112,79.6c0,0.6,0.5,1.1,1.1,1.1s1.1-0.5,1.1-1.1H112z M117.7,97c-0.6,0-1.1,0.5-1.1,1.1h2.1
		C118.7,97.5,118.3,97,117.7,97z M113.1,97c-0.6,0-1.1,0.5-1.1,1.1h2.1C114.1,97.5,113.6,97,113.1,97z M120,94.5v-2.1
		c-0.6,0-1.1,0.5-1.1,1.1S119.4,94.5,120,94.5z"/>
	<circle class="st4" cx="115.4" cy="93.5" r="1.1"/>
	<path class="st4" d="M111.8,93.5c0-0.6-0.5-1.1-1.1-1.1v2.1C111.3,94.5,111.8,94.1,111.8,93.5z M116.6,88.8c0,0.6,0.5,1.1,1.1,1.1
		s1.1-0.5,1.1-1.1H116.6z M112,88.8c0,0.6,0.5,1.1,1.1,1.1s1.1-0.5,1.1-1.1H112z M117.7,106.2c-0.6,0-1.1,0.5-1.1,1.1h2.1
		C118.7,106.7,118.3,106.2,117.7,106.2z M113.1,106.2c-0.6,0-1.1,0.5-1.1,1.1h2.1C114.1,106.7,113.6,106.2,113.1,106.2z M120,103.8
		v-2.1c-0.6,0-1.1,0.5-1.1,1.1S119.4,103.8,120,103.8z"/>
	<circle class="st4" cx="115.4" cy="102.7" r="1.1"/>
	<path class="st4" d="M111.8,102.7c0-0.6-0.5-1.1-1.1-1.1v2.1C111.3,103.8,111.8,103.3,111.8,102.7z M116.6,98.1
		c0,0.6,0.5,1.1,1.1,1.1s1.1-0.5,1.1-1.1H116.6z M112,98.1c0,0.6,0.5,1.1,1.1,1.1s1.1-0.5,1.1-1.1H112z M120,113v-2.1
		c-0.6,0-1.1,0.5-1.1,1.1S119.4,113,120,113z M115.4,110.9l0.9,0.5C116.1,111.1,115.8,110.9,115.4,110.9z M116.6,107.3
		c0,0.6,0.5,1.1,1.1,1.1s1.1-0.5,1.1-1.1H116.6z M112,107.3c0,0.6,0.5,1.1,1.1,1.1s1.1-0.5,1.1-1.1H112z M108.4,50.8
		c-0.6,0-1.1,0.5-1.1,1.1h2.1C109.5,51.3,109,50.8,108.4,50.8z M103.8,50.8c-0.6,0-1.1,0.5-1.1,1.1h2.1
		C104.9,51.3,104.4,50.8,103.8,50.8z M106.1,48.4c0.3,0,0.6-0.2,0.8-0.4l-1.8-1c0,0.1-0.1,0.2-0.1,0.3
		C105.1,47.9,105.5,48.4,106.1,48.4z M101.5,46.2v2.1c0.6,0,1.1-0.5,1.1-1.1S102.1,46.2,101.5,46.2z M108.4,60.1
		c-0.6,0-1.1,0.5-1.1,1.1h2.1C109.5,60.6,109,60.1,108.4,60.1z M103.8,60.1c-0.6,0-1.1,0.5-1.1,1.1h2.1
		C104.9,60.6,104.4,60.1,103.8,60.1z M109.7,56.5c0,0.6,0.5,1.1,1.1,1.1v-2.1C110.2,55.5,109.7,55.9,109.7,56.5z"/>
	<circle class="st4" cx="106.1" cy="56.5" r="1.1"/>
	<path class="st4" d="M101.5,55.5v2.1c0.6,0,1.1-0.5,1.1-1.1S102.1,55.5,101.5,55.5z M107.4,51.9c0,0.6,0.5,1.1,1.1,1.1
		s1.1-0.5,1.1-1.1H107.4z M102.8,51.9c0,0.6,0.5,1.1,1.1,1.1s1.1-0.5,1.1-1.1H102.8z M108.4,69.3c-0.6,0-1.1,0.5-1.1,1.1h2.1
		C109.5,69.8,109,69.3,108.4,69.3z M103.8,69.3c-0.6,0-1.1,0.5-1.1,1.1h2.1C104.9,69.8,104.4,69.3,103.8,69.3z M109.7,65.8
		c0,0.6,0.5,1.1,1.1,1.1v-2.1C110.2,64.7,109.7,65.2,109.7,65.8z"/>
	<circle class="st4" cx="106.1" cy="65.8" r="1.1"/>
	<path class="st4" d="M101.5,64.7v2.1c0.6,0,1.1-0.5,1.1-1.1S102.1,64.7,101.5,64.7z M107.4,61.1c0,0.6,0.5,1.1,1.1,1.1
		s1.1-0.5,1.1-1.1H107.4z M102.8,61.1c0,0.6,0.5,1.1,1.1,1.1s1.1-0.5,1.1-1.1H102.8z M108.4,78.5c-0.6,0-1.1,0.5-1.1,1.1h2.1
		C109.5,79,109,78.5,108.4,78.5z M103.8,78.5c-0.6,0-1.1,0.5-1.1,1.1h2.1C104.9,79,104.4,78.5,103.8,78.5z M110.7,76.1V74
		c-0.6,0-1.1,0.5-1.1,1.1S110.2,76.1,110.7,76.1z"/>
	<circle class="st4" cx="106.1" cy="75" r="1.1"/>
	<path class="st4" d="M101.5,76.1c0.6,0,1.1-0.5,1.1-1.1s-0.5-1.1-1.1-1.1V76.1z M108.4,71.4c0.6,0,1.1-0.5,1.1-1.1h-2.1
		C107.4,71,107.8,71.4,108.4,71.4z M102.8,70.4c0,0.6,0.5,1.1,1.1,1.1s1.1-0.5,1.1-1.1H102.8z M108.4,87.8c-0.6,0-1.1,0.5-1.1,1.1
		h2.1C109.5,88.3,109,87.8,108.4,87.8z M103.8,87.8c-0.6,0-1.1,0.5-1.1,1.1h2.1C104.9,88.3,104.4,87.8,103.8,87.8z M110.7,85.3v-2.1
		c-0.6,0-1.1,0.5-1.1,1.1S110.2,85.3,110.7,85.3z"/>
	<circle class="st4" cx="106.1" cy="84.2" r="1.1"/>
	<path class="st4" d="M102.6,84.2c0-0.6-0.5-1.1-1.1-1.1v2.1C102.1,85.3,102.6,84.8,102.6,84.2z M108.4,80.7c0.6,0,1.1-0.5,1.1-1.1
		h-2.1C107.4,80.2,107.8,80.7,108.4,80.7z M102.8,79.6c0,0.6,0.5,1.1,1.1,1.1s1.1-0.5,1.1-1.1H102.8z M108.4,97
		c-0.6,0-1.1,0.5-1.1,1.1h2.1C109.5,97.5,109,97,108.4,97z M103.8,97c-0.6,0-1.1,0.5-1.1,1.1h2.1C104.9,97.5,104.4,97,103.8,97z
		 M110.7,94.5v-2.1c-0.6,0-1.1,0.5-1.1,1.1S110.2,94.5,110.7,94.5z"/>
	<circle class="st4" cx="106.1" cy="93.5" r="1.1"/>
	<path class="st4" d="M102.6,93.5c0-0.6-0.5-1.1-1.1-1.1v2.1C102.1,94.5,102.6,94.1,102.6,93.5z M108.4,89.9c0.6,0,1.1-0.5,1.1-1.1
		h-2.1C107.4,89.4,107.8,89.9,108.4,89.9z M102.8,88.8c0,0.6,0.5,1.1,1.1,1.1s1.1-0.5,1.1-1.1H102.8z M108.4,106.2
		c-0.3,0-0.5,0.1-0.7,0.2l1.4,0.8h0.3C109.5,106.7,109,106.2,108.4,106.2z M110.7,103.8v-2.1c-0.6,0-1.1,0.5-1.1,1.1
		S110.2,103.8,110.7,103.8z"/>
	<circle class="st4" cx="106.1" cy="102.7" r="1.1"/>
	<path class="st4" d="M101.5,101.6v1.2l0.8,0.5c0.1-0.2,0.2-0.4,0.2-0.7C102.6,102.1,102.1,101.6,101.5,101.6z M109.5,98.1h-2.1
		c0,0.6,0.5,1.1,1.1,1.1S109.5,98.7,109.5,98.1z M102.8,98.1c0,0.6,0.5,1.1,1.1,1.1s1.1-0.5,1.1-1.1H102.8z M109.5,107.3h-0.3
		l0.3,0.2V107.3z M94.6,41.6c-0.6,0-1.1,0.5-1.1,1.1h2.1C95.7,42.1,95.2,41.6,94.6,41.6z M99.2,50.8c-0.6,0-1.1,0.5-1.1,1.1h2.1
		C100.3,51.3,99.8,50.8,99.2,50.8z M94.6,50.8c-0.6,0-1.1,0.5-1.1,1.1h2.1C95.7,51.3,95.2,50.8,94.6,50.8z M100.4,47.3
		c0,0.6,0.5,1.1,1.1,1.1v-2.1C100.9,46.2,100.4,46.7,100.4,47.3z"/>
	<circle class="st4" cx="96.9" cy="47.3" r="1.1"/>
	<path class="st4" d="M92.3,46.2v2.1c0.6,0,1.1-0.5,1.1-1.1S92.9,46.2,92.3,46.2z M99.2,43.7c0.1,0,0.2,0,0.3-0.1l-1.3-0.7
		C98.3,43.4,98.7,43.7,99.2,43.7z M93.5,42.7c0,0.6,0.5,1.1,1.1,1.1s1.1-0.5,1.1-1.1H93.5z M99.2,60.1c-0.6,0-1.1,0.5-1.1,1.1h2.1
		C100.3,60.6,99.8,60.1,99.2,60.1z M94.6,60.1c-0.6,0-1.1,0.5-1.1,1.1h2.1C95.7,60.6,95.2,60.1,94.6,60.1z M100.4,56.5
		c0,0.6,0.5,1.1,1.1,1.1v-2.1C100.9,55.5,100.4,55.9,100.4,56.5z"/>
	<circle class="st4" cx="96.9" cy="56.5" r="1.1"/>
	<path class="st4" d="M92.3,55.5v2.1c0.6,0,1.1-0.5,1.1-1.1S92.9,55.5,92.3,55.5z M98.1,51.9c0,0.6,0.5,1.1,1.1,1.1s1.1-0.5,1.1-1.1
		H98.1z M93.5,51.9c0,0.6,0.5,1.1,1.1,1.1s1.1-0.5,1.1-1.1H93.5z M99.2,69.3c-0.6,0-1.1,0.5-1.1,1.1h2.1
		C100.3,69.8,99.8,69.3,99.2,69.3z M94.6,69.3c-0.6,0-1.1,0.5-1.1,1.1h2.1C95.7,69.8,95.2,69.3,94.6,69.3z M100.4,65.8
		c0,0.6,0.5,1.1,1.1,1.1v-2.1C100.9,64.7,100.4,65.2,100.4,65.8z"/>
	<circle class="st4" cx="96.9" cy="65.8" r="1.1"/>
	<path class="st4" d="M92.3,64.7v2.1c0.6,0,1.1-0.5,1.1-1.1S92.9,64.7,92.3,64.7z M98.1,61.1c0,0.6,0.5,1.1,1.1,1.1s1.1-0.5,1.1-1.1
		H98.1z M93.5,61.1c0,0.6,0.5,1.1,1.1,1.1s1.1-0.5,1.1-1.1H93.5z M99.2,78.5c-0.6,0-1.1,0.5-1.1,1.1h2.1
		C100.3,79,99.8,78.5,99.2,78.5z M94.6,78.5c-0.6,0-1.1,0.5-1.1,1.1h2.1C95.7,79,95.2,78.5,94.6,78.5z M100.4,75
		c0,0.6,0.5,1.1,1.1,1.1V74C100.9,73.9,100.4,74.4,100.4,75z"/>
	<circle class="st4" cx="96.9" cy="75" r="1.1"/>
	<path class="st4" d="M92.3,76.1c0.6,0,1.1-0.5,1.1-1.1s-0.5-1.1-1.1-1.1V76.1z M98.1,70.4c0,0.6,0.5,1.1,1.1,1.1s1.1-0.5,1.1-1.1
		H98.1z M94.6,71.4c0.6,0,1.1-0.5,1.1-1.1h-2.1C93.5,71,94,71.4,94.6,71.4z M99.2,87.8c-0.6,0-1.1,0.5-1.1,1.1h2.1
		C100.3,88.3,99.8,87.8,99.2,87.8z M94.6,87.8c-0.6,0-1.1,0.5-1.1,1.1h2.1C95.7,88.3,95.2,87.8,94.6,87.8z M101.5,85.3v-2.1
		c-0.6,0-1.1,0.5-1.1,1.1S100.9,85.3,101.5,85.3z"/>
	<circle class="st4" cx="96.9" cy="84.2" r="1.1"/>
	<path class="st4" d="M93.3,84.2c0-0.6-0.5-1.1-1.1-1.1v2.1C92.9,85.3,93.3,84.8,93.3,84.2z M98.1,79.6c0,0.6,0.5,1.1,1.1,1.1
		s1.1-0.5,1.1-1.1H98.1z M94.6,80.7c0.6,0,1.1-0.5,1.1-1.1h-2.1C93.5,80.2,94,80.7,94.6,80.7z M99.2,97c-0.6,0-1.1,0.5-1.1,1.1h2.1
		C100.3,97.5,99.8,97,99.2,97z M94.6,97c-0.6,0-1.1,0.5-1.1,1.1h2.1C95.7,97.5,95.2,97,94.6,97z M101.5,94.5v-2.1
		c-0.6,0-1.1,0.5-1.1,1.1S100.9,94.5,101.5,94.5z"/>
	<circle class="st4" cx="96.9" cy="93.5" r="1.1"/>
	<path class="st4" d="M92.3,92.4v2.1c0.6,0,1.1-0.5,1.1-1.1S92.9,92.4,92.3,92.4z M98.1,88.8c0,0.6,0.5,1.1,1.1,1.1s1.1-0.5,1.1-1.1
		H98.1z M94.6,89.9c0.6,0,1.1-0.5,1.1-1.1h-2.1C93.5,89.4,94,89.9,94.6,89.9z M100.5,102.3l1,0.6v-1.2
		C101.1,101.6,100.7,101.9,100.5,102.3z M98.1,98.1c0,0.6,0.5,1.1,1.1,1.1s1.1-0.5,1.1-1.1H98.1z M95.7,98.1h-2.1v0.2l1.4,0.8
		C95.4,98.9,95.7,98.5,95.7,98.1z M90,41.6c-0.6,0-1.1,0.5-1.1,1.1H91C91,42.1,90.6,41.6,90,41.6z M85.4,41.6
		c-0.6,0-1.1,0.5-1.1,1.1h2.1C86.4,42.1,85.9,41.6,85.4,41.6z M86.6,38.1c0,0.6,0.5,1.1,1.1,1.1s1.1-0.5,1.1-1.1
		c0-0.3-0.1-0.6-0.4-0.8L88,37.1c-0.1,0-0.2-0.1-0.3-0.1C87.1,37,86.6,37.5,86.6,38.1z M84.1,38.1c0-0.6-0.5-1.1-1.1-1.1v2.1
		C83.6,39.1,84.1,38.6,84.1,38.1z M90,50.8c-0.6,0-1.1,0.5-1.1,1.1H91C91,51.3,90.6,50.8,90,50.8z M85.4,50.8
		c-0.6,0-1.1,0.5-1.1,1.1h2.1C86.4,51.3,85.9,50.8,85.4,50.8z M92.3,46.2c-0.6,0-1.1,0.5-1.1,1.1s0.5,1.1,1.1,1.1
		C92.3,48.4,92.3,46.2,92.3,46.2z"/>
	<circle class="st4" cx="87.7" cy="47.3" r="1.1"/>
	<path class="st4" d="M83,48.4c0.6,0,1.1-0.5,1.1-1.1s-0.5-1.1-1.1-1.1C83,46.2,83,48.4,83,48.4z M88.9,42.7c0,0.6,0.5,1.1,1.1,1.1
		s1.1-0.5,1.1-1.1H88.9z M84.3,42.7c0,0.6,0.5,1.1,1.1,1.1s1.1-0.5,1.1-1.1H84.3z M90,60.1c-0.6,0-1.1,0.5-1.1,1.1H91
		C91,60.6,90.6,60.1,90,60.1z M85.4,60.1c-0.6,0-1.1,0.5-1.1,1.1h2.1C86.4,60.6,85.9,60.1,85.4,60.1z M92.3,55.5
		c-0.6,0-1.1,0.5-1.1,1.1s0.5,1.1,1.1,1.1C92.3,57.7,92.3,55.5,92.3,55.5z"/>
	<circle class="st4" cx="87.7" cy="56.5" r="1.1"/>
	<path class="st4" d="M83,57.6c0.6,0,1.1-0.5,1.1-1.1s-0.5-1.1-1.1-1.1C83,55.4,83,57.6,83,57.6z M88.9,51.9c0,0.6,0.5,1.1,1.1,1.1
		s1.1-0.5,1.1-1.1H88.9z M84.3,51.9c0,0.6,0.5,1.1,1.1,1.1s1.1-0.5,1.1-1.1H84.3z M90,69.3c-0.6,0-1.1,0.5-1.1,1.1H91
		C91,69.8,90.6,69.3,90,69.3z M85.4,69.3c-0.6,0-1.1,0.5-1.1,1.1h2.1C86.4,69.8,85.9,69.3,85.4,69.3z M92.3,64.7
		c-0.6,0-1.1,0.5-1.1,1.1s0.5,1.1,1.1,1.1V64.7z"/>
	<circle class="st4" cx="87.7" cy="65.8" r="1.1"/>
	<path class="st4" d="M83,66.8c0.6,0,1.1-0.5,1.1-1.1s-0.5-1.1-1.1-1.1V66.8z M88.9,61.1c0,0.6,0.5,1.1,1.1,1.1s1.1-0.5,1.1-1.1
		H88.9z M84.3,61.1c0,0.6,0.5,1.1,1.1,1.1s1.1-0.5,1.1-1.1H84.3z M90,78.5c-0.6,0-1.1,0.5-1.1,1.1H91C91,79,90.6,78.5,90,78.5z
		 M85.4,78.5c-0.6,0-1.1,0.5-1.1,1.1h2.1C86.4,79,85.9,78.5,85.4,78.5z M92.3,73.9c-0.6,0-1.1,0.5-1.1,1.1s0.5,1.1,1.1,1.1V73.9z"/>
	<circle class="st4" cx="87.7" cy="75" r="1.1"/>
	<path class="st4" d="M83,76.1c0.6,0,1.1-0.5,1.1-1.1s-0.5-1.1-1.1-1.1V76.1z M88.9,70.4c0,0.6,0.5,1.1,1.1,1.1s1-0.5,1-1.1H88.9z
		 M84.3,70.4c0,0.6,0.5,1.1,1.1,1.1s1.1-0.5,1.1-1.1H84.3z M90,87.8c-0.6,0-1.1,0.5-1.1,1.1H91C91,88.3,90.6,87.8,90,87.8z
		 M85.4,87.8c-0.6,0-1.1,0.5-1.1,1.1h2.1C86.4,88.3,85.9,87.8,85.4,87.8z M92.3,85.3v-2.1c-0.6,0-1.1,0.5-1.1,1.1
		S91.7,85.3,92.3,85.3z"/>
	<circle class="st4" cx="87.7" cy="84.2" r="1.1"/>
	<path class="st4" d="M84.1,84.2c0-0.6-0.5-1.1-1.1-1.1v2.1C83.6,85.3,84.1,84.8,84.1,84.2z M88.9,79.6c0,0.6,0.5,1.1,1.1,1.1
		s1.1-0.5,1.1-1.1H88.9z M84.3,79.6c0,0.6,0.5,1.1,1.1,1.1s1.1-0.5,1.1-1.1H84.3z M92.3,92.4c-0.6,0-1.1,0.5-1.1,1.1
		s0.5,1.1,1.1,1.1V92.4z"/>
	<circle class="st4" cx="87.7" cy="93.5" r="1.1"/>
	<path class="st4" d="M88.9,88.8c0,0.6,0.5,1.1,1.1,1.1s1.1-0.5,1.1-1.1H88.9z M84.3,88.8c0,0.6,0.5,1.1,1.1,1.1s1.1-0.5,1.1-1.1
		H84.3z M79.7,33.4h2.1l-1.6-0.9C79.9,32.7,79.7,33.1,79.7,33.4z M76.1,32.4c-0.3,0-0.6,0.1-0.8,0.3v0.8h1.8
		C77.2,32.8,76.7,32.4,76.1,32.4z M80.7,41.6c-0.6,0-1.1,0.5-1.1,1.1h2.1C81.8,42.1,81.3,41.6,80.7,41.6z M76.1,41.6
		c-0.3,0-0.6,0.1-0.8,0.3v0.8h1.8C77.2,42.1,76.7,41.6,76.1,41.6z M83,39.1V37c-0.6,0-1.1,0.5-1.1,1.1S82.5,39.1,83,39.1z"/>
	<circle class="st4" cx="78.4" cy="38.1" r="1.1"/>
	<path class="st4" d="M79.7,33.4c0,0.6,0.5,1.1,1.1,1.1s1-0.5,1.1-1h-0.1L79.7,33.4z M76.1,34.5c0.6,0,1.1-0.5,1.1-1.1h-1.8v0.8
		C75.6,34.4,75.8,34.5,76.1,34.5z M80.7,50.8c-0.6,0-1.1,0.5-1.1,1.1h2.1C81.8,51.3,81.3,50.8,80.7,50.8z M76.1,50.8
		c-0.3,0-0.6,0.1-0.8,0.3v0.8h1.8C77.2,51.3,76.7,50.8,76.1,50.8z M83,46.2c-0.6,0-1.1,0.5-1.1,1.1s0.5,1.1,1.1,1.1
		C83,48.4,83,46.2,83,46.2z"/>
	<circle class="st4" cx="78.4" cy="47.3" r="1.1"/>
	<path class="st4" d="M79.7,42.7c0,0.6,0.5,1.1,1.1,1.1s1.1-0.5,1.1-1.1H79.7z M75.4,43.4c0.2,0.2,0.5,0.3,0.8,0.3
		c0.6,0,1.1-0.5,1.1-1.1h-1.8L75.4,43.4L75.4,43.4z M80.7,60.1c-0.6,0-1.1,0.5-1.1,1.1h2.1C81.8,60.6,81.3,60.1,80.7,60.1z
		 M76.1,60.1c-0.3,0-0.6,0.1-0.8,0.3v0.8h1.8C77.2,60.6,76.7,60.1,76.1,60.1z M83,55.5c-0.6,0-1.1,0.5-1.1,1.1s0.5,1.1,1.1,1.1
		C83,57.7,83,55.5,83,55.5z"/>
	<circle class="st4" cx="78.4" cy="56.5" r="1.1"/>
	<path class="st4" d="M79.7,51.9c0,0.6,0.5,1.1,1.1,1.1s1.1-0.5,1.1-1.1H79.7z M75.4,52.7c0.2,0.2,0.5,0.3,0.8,0.3
		c0.6,0,1.1-0.5,1.1-1.1h-1.8L75.4,52.7L75.4,52.7z M80.7,69.3c-0.6,0-1.1,0.5-1.1,1.1h2.1C81.8,69.8,81.3,69.3,80.7,69.3z
		 M76.1,69.3c-0.3,0-0.6,0.1-0.8,0.3v0.8h1.8C77.2,69.8,76.7,69.3,76.1,69.3z M83,64.7c-0.6,0-1.1,0.5-1.1,1.1s0.5,1.1,1.1,1.1V64.7
		z"/>
	<circle class="st4" cx="78.4" cy="65.8" r="1.1"/>
	<path class="st4" d="M79.7,61.1c0,0.6,0.5,1.1,1.1,1.1s1.1-0.5,1.1-1.1H79.7z M76.1,62.2c0.6,0,1.1-0.5,1.1-1.1h-1.8v0.8
		C75.6,62.1,75.8,62.2,76.1,62.2z M80.7,78.5c-0.6,0-1.1,0.5-1.1,1.1h2.1C81.8,79,81.3,78.5,80.7,78.5z M76.1,78.5
		c-0.3,0-0.6,0.1-0.8,0.3v0.8h1.8C77.2,79,76.7,78.5,76.1,78.5z M83,73.9c-0.6,0-1.1,0.5-1.1,1.1s0.5,1.1,1.1,1.1V73.9z"/>
	<circle class="st4" cx="78.4" cy="75" r="1.1"/>
	<path class="st4" d="M79.7,70.4c0,0.6,0.5,1.1,1.1,1.1s1.1-0.5,1.1-1.1H79.7z M76.1,71.4c0.6,0,1.1-0.5,1.1-1.1h-1.8v0.8
		C75.6,71.3,75.8,71.4,76.1,71.4z M80.7,87.8c-0.6,0-1.1,0.5-1.1,1.1h2.1C81.8,88.3,81.3,87.8,80.7,87.8z M76.1,87.8
		c-0.2,0-0.4,0.1-0.5,0.1l1.6,0.9C77.2,88.2,76.7,87.8,76.1,87.8z M83,85.3v-2.1c-0.6,0-1.1,0.5-1.1,1.1S82.5,85.3,83,85.3z"/>
	<circle class="st4" cx="78.4" cy="84.2" r="1.1"/>
	<path class="st4" d="M80.7,80.7c0.6,0,1.1-0.5,1.1-1.1h-2.1C79.7,80.2,80.1,80.7,80.7,80.7z M76.1,80.7c0.6,0,1.1-0.5,1.1-1.1h-1.8
		v0.8C75.6,80.6,75.8,80.7,76.1,80.7z M79.7,88.8c0,0.6,0.5,1.1,1.1,1.1s1.1-0.5,1.1-1.1H79.7z"/>
</g>
<g class="st1">
	<path class="st4" d="M121.1,116.5h2.4l0.6-0.6l-3-1.7 M121.1,124.5v2.4h2.4l2.1-2v-4.8 M121.1,118.9l1-0.9l-1-0.9"/>
	<path class="st4" d="M121.1,116.5v0.6l1,0.9l1.4-1.5 M121.1,134.9v2.4h2.4l2.1-2.1v-4.8 M121.1,129.3l1-0.9l-1-0.9"/>
	<path class="st4" d="M121.1,126.9v0.6l1,0.9l1.4-1.5 M121.1,145.3v2.4h2.4l2.1-2.1v-4.8 M121.1,139.7l1-0.9l-1-0.9"/>
	<path class="st4" d="M121.1,137.3v0.6l1,0.9l1.4-1.5 M121.1,155.7v2.4h2.4l2.1-2.1v-4.8 M121.1,150.1l1-0.9l-1-0.9"/>
	<path class="st4" d="M121.1,147.7v0.6l1,0.9l1.4-1.5 M121.1,168.5h2.4l2.1-2.1v-4.8l-4.5,4.5 M121.1,160.5l1-0.9l-1-0.9"/>
	<path class="st4" d="M121.1,158.1v0.6l1,0.9l1.4-1.5 M125.6,172l-1.8,1.8l1.8,1 M121.1,170.9l1-0.9l-1-1"/>
	<path class="st4" d="M121.1,168.5v0.5l1,1l0.5-0.6l0.9-0.9 M119.7,115.6l-1,0.9h1.9"/>
	<path class="st4" d="M121.1,116.5v-2.3l-0.9,0.9l-0.5,0.5l0.9,0.9 M110.7,116.5h2.4l4.5-4.4l-3.1-1.7l-3.8,3.8 M111,108.3l-0.3-0.1
		v0.4 M119.7,126l-1,0.9h1.9"/>
	<path class="st4" d="M121.1,126.9v-2.4l-0.9,1l-0.5,0.5l0.9,0.9 M120.6,116.5h-1.9l-8,8v2.4h2.4l8-8v-1.8 M110.7,117.1v1.8l1.5-1.4
		l-0.5,0.5 M121.1,117.1v-0.6h-0.5"/>
	<path class="st4" d="M110.7,116.5v0.6l1,0.9l0.5-0.5l0.9-1 M119.7,136.4l-1,0.9h1.9"/>
	<path class="st4" d="M121.1,137.3v-2.4l-0.9,0.9l-0.5,0.6l0.9,0.9 M120.6,126.9h-1.9l-8,8v2.4h2.4l8-8v-1.8 M110.7,127.5v1.8
		l1.5-1.4l-0.5,0.5 M121.1,127.5v-0.6h-0.5"/>
	<path class="st4" d="M110.7,126.9v0.6l1,0.9l0.5-0.5l0.9-1 M119.7,146.8l-1,0.9h1.9 M121.1,147.7v-2.4l-0.9,0.9l-0.5,0.6l0.9,0.9
		 M120.6,137.3h-1.9l-8,8v2.4h2.4l8-8v-1.8 M110.7,137.9v1.8l1.5-1.5l-0.5,0.6"/>
	<path class="st4" d="M121.1,137.9v-0.6h-0.5 M110.7,137.3v0.6l1,0.9l0.5-0.6l0.9-0.9 M119.7,157.2l-1,0.9h1.9"/>
	<path class="st4" d="M121.1,158.1v-2.4l-1.4,1.5l0.9,0.9 M120.6,147.7h-1.9l-8,8v2.4h2.4l8-8v-1.8 M110.7,148.3v1.8l1.5-1.5
		l-0.5,0.6"/>
	<path class="st4" d="M121.1,148.3v-0.6h-0.5 M110.7,147.7v0.6l1,0.9l0.5-0.6l0.9-0.9 M119.7,167.6l0.5-0.6l-1.5,1.5h1.9"/>
	<path class="st4" d="M120.6,168.5h0.5v-2.4l-0.9,0.9l-0.5,0.6 M120.6,158.1h-1.9l-8,8v0.1l3,1.7l7.4-7.4v-1.8 M110.7,158.7v1.8
		l1.5-1.5l-0.5,0.6"/>
	<path class="st4" d="M121.1,158.7v-0.6h-0.5 M110.7,158.1v0.6l1,0.9l0.5-0.6l0.9-0.9 M121.1,169l-0.5-0.5h-1.9l-1.5,1.5l3.1,1.7
		l0.8-0.8"/>
	<path class="st4" d="M120.6,168.5l0.5,0.5v-0.5 M100.4,106.2h2.4l1.6-1.7l-3.1-1.7l-0.9,1 M109.3,115.6l0.5-0.5l-1.4,1.4h1.8"/>
	<path class="st4" d="M110.2,116.5h0.5v-2.3l-0.9,0.9l-0.5,0.5 M100.4,116.5h2.4l7.9-7.9v-0.4l-2.8-1.6l-7.5,7.6 M100.4,106.7v1.9
		l1.4-1.5l-0.5,0.5"/>
	<path class="st4" d="M100.4,106.2v0.5l0.9,0.9l0.5-0.5l1-0.9 M109.3,126l0.5-0.5l-1.4,1.4h1.8"/>
	<path class="st4" d="M110.2,126.9h0.5v-2.4l-0.9,1l-0.5,0.5 M100.4,126.9h2.4l7.9-8v-1.8l-0.5-0.6h-1.8l-8,8 M100.4,117.1v1.8
		l1.4-1.4l-0.5,0.5"/>
	<path class="st4" d="M110.2,116.5l0.5,0.6v-0.6 M100.4,116.5v0.6l0.9,0.9l0.5-0.5l1-1 M109.3,136.4l0.5-0.6l-1.4,1.5h1.8"/>
	<path class="st4" d="M110.2,137.3h0.5v-2.4l-0.9,0.9l-0.5,0.6 M110.2,126.9h-1.8l-8,8v2.4h2.4l7.9-8v-1.8 M100.4,127.5v1.8l1.4-1.4
		l-0.5,0.5"/>
	<path class="st4" d="M110.7,127.5v-0.6h-0.5 M100.4,126.9v0.6l0.9,0.9l0.5-0.5l1-1 M109.3,146.8l0.5-0.6l-1.4,1.5h1.8"/>
	<path class="st4" d="M110.2,147.7h0.5v-2.4l-0.9,0.9l-0.5,0.6 M110.2,137.3h-1.8l-8,8v2.4h2.4l7.9-8v-1.8 M100.4,137.9v1.8l1.4-1.5
		l-0.5,0.6"/>
	<path class="st4" d="M110.7,137.9v-0.6h-0.5 M100.4,137.3v0.6l0.9,0.9l0.5-0.6l1-0.9 M109.3,157.2l-0.9,0.9h1.8 M110.7,158.1v-2.4
		l-0.9,0.9l-0.5,0.6l0.9,0.9 M110.2,147.7h-1.8l-8,8v2.4h2.4l7.9-8v-1.8 M100.4,148.3v1.8l1.4-1.5l-0.5,0.6"/>
	<path class="st4" d="M110.7,148.3v-0.6h-0.5 M100.4,147.7v0.6l0.9,0.9l0.5-0.6l1-0.9 M110.7,166.2v-0.1 M110.2,158.1h-1.8l-4.3,4.3
		l3,1.7l3.6-3.6v-1.8 M100.4,158.7v1.5l0.1,0.1l1.3-1.3l-0.5,0.6"/>
	<path class="st4" d="M110.7,158.7v-0.6h-0.5 M100.4,158.1v0.6l0.9,0.9l0.5-0.6l1-0.9 M98.9,105.2l-0.9,1h1.8 M100.4,106.2v-2.4
		l-1.5,1.4l0.9,1 M90,106.2h2.4l5.4-5.5l-3-1.7l-4.8,4.8 M90,98.2l0.9-1L90,96.3"/>
	<path class="st4" d="M90.9,97.2l0.3-0.3L90,96.2v0.1 M98.9,115.6l-0.9,0.9h1.8"/>
	<path class="st4" d="M100.4,116.5v-2.3l-1.5,1.4l0.9,0.9 M90,116.5h2.4l8-7.9v-1.9l-0.6-0.5H98l-8,8 M90,106.7v1.9l1.4-1.5
		l-0.5,0.5"/>
	<path class="st4" d="M99.8,106.2l0.6,0.5v-0.5 M90,106.2v0.5l0.9,0.9l0.5-0.5l1-0.9 M98.9,126l-0.9,0.9h1.8 M100.4,126.9v-2.4
		l-1.5,1.5l0.9,0.9 M90,126.9h2.4l8-8v-1.8l-0.6-0.6H98l-8,8 M90,117.1v1.8l1.4-1.4l-0.5,0.5 M99.8,116.5l0.6,0.6v-0.6"/>
	<path class="st4" d="M90,116.5v0.6l0.9,0.9l0.5-0.5l1-1 M98.9,136.4l-0.9,0.9h1.8 M100.4,137.3v-2.4l-1.5,1.5l0.9,0.9 M90,137.3
		h2.4l8-8v-1.8l-0.6-0.6H98l-8,8 M90,127.5v1.8l1.4-1.4l-0.5,0.5 M99.8,126.9l0.6,0.6v-0.6"/>
	<path class="st4" d="M90,126.9v0.6l0.9,0.9l0.5-0.5l1-1 M98.9,146.8l-0.9,0.9h1.8 M100.4,147.7v-2.4l-1.5,1.5l0.9,0.9 M99.8,137.3
		H98l-8,8v2.4h2.4l8-8v-1.8 M90,137.9v1.8l1.4-1.5l-0.5,0.6 M100.4,137.9v-0.6h-0.6"/>
	<path class="st4" d="M90,137.3v0.6l0.9,0.9l0.5-0.6l1-0.9 M98.9,157.2l-0.9,0.9h1.8 M100.4,158.1v-2.4l-1.5,1.5l0.9,0.9
		 M99.8,147.7H98l-7.1,7.1l3,1.7l6.5-6.4v-1.8 M90,148.3v1.8l1.4-1.5l-0.5,0.6"/>
	<path class="st4" d="M100.4,148.3v-0.6h-0.6 M90,147.7v0.6l0.9,0.9l0.5-0.6l1-0.9 M99.8,158.1H98l-0.5,0.5l2.9,1.6v-1.5
		 M100.4,158.7v-0.6h-0.6 M88.2,95.2l-0.6,0.6h1.6 M79.6,95.8H82l2.6-2.7l-3-1.7l-2,2 M88.5,105.2l-0.9,1h1.8 M90,106.2v-2.4
		l-1.5,1.4l0.9,1"/>
	<path class="st4" d="M79.6,106.2H82l8-8v-1.9l-0.3-0.2l-0.5-0.3h-1.6l-8,8 M79.6,98.2l0.9-1l-0.9-0.9"/>
	<path class="st4" d="M90,96.2l-0.3-0.1L90,96.2 M79.6,95.8v0.5l0.9,0.9l0.6-0.5l0.9-0.9 M88.5,115.6l-0.9,0.9h1.8"/>
	<path class="st4" d="M90,116.5v-2.3l-1.5,1.4l0.9,0.9 M79.6,116.5H82l8-7.9v-1.9l-0.6-0.5h-1.8l-8,8 M79.6,106.7v1.9l1.5-1.5
		l-0.6,0.5"/>
	<path class="st4" d="M89.4,106.2l0.6,0.5v-0.5 M79.6,106.2v0.5l0.9,0.9l0.6-0.5l0.9-0.9 M88.5,126l-0.9,0.9h1.8 M90,126.9v-2.4
		l-1.5,1.5l0.9,0.9 M79.6,126.9H82l8-8v-1.8l-0.6-0.6h-1.8l-8,8 M79.6,117.1v1.8l1.5-1.4l-0.6,0.5 M89.4,116.5l0.6,0.6v-0.6"/>
	<path class="st4" d="M79.6,116.5v0.6l0.9,0.9l0.6-0.5l0.9-1 M88.5,136.4l-0.9,0.9h1.8 M90,137.3v-2.4l-1.5,1.5l0.9,0.9 M79.6,137.3
		H82l8-8v-1.8l-0.6-0.6h-1.8l-8,8 M79.6,127.5v1.8l1.5-1.4l-0.6,0.5 M89.4,126.9l0.6,0.6v-0.6"/>
	<path class="st4" d="M79.6,126.9v0.6l0.9,0.9l0.6-0.5l0.9-1 M88.5,146.8l-0.9,0.9h1.8 M90,147.7v-2.4l-1.5,1.5l0.9,0.9 M79.6,147.7
		H82l8-8v-1.8l-0.6-0.6h-1.8l-8,8 M79.6,137.9v1.8l1.5-1.5l-0.6,0.6"/>
	<path class="st4" d="M89.4,137.3l0.6,0.6v-0.6 M79.6,137.3v0.6l0.9,0.9l0.6-0.6l0.9-0.9 M89.4,147.7h-1.8l-3.3,3.3l3.1,1.7l2.6-2.6
		v-1.8"/>
	<path class="st4" d="M90,148.3v-0.6h-0.6 M79.6,147.7v0.5l1.2,0.7l0.3-0.3l0.9-0.9 M78.1,94.8l-0.9,1H79"/>
	<path class="st4" d="M79.6,95.8v-2.4l-1.5,1.4l0.9,1 M75.4,92l2.6-2.7l-2.6-1.5 M78.1,105.2l-0.9,1H79"/>
	<path class="st4" d="M79.6,106.2v-2.4l-1.5,1.4l0.9,1 M79,95.8h-1.8l-1.8,1.8v4.8l4.2-4.2v-1.9"/>
	<path class="st4" d="M79.6,96.3v-0.5H79 M78.1,115.6l-0.9,0.9H79"/>
	<path class="st4" d="M79.6,116.5v-2.3l-1.5,1.4l0.9,0.9 M79.6,108.6v-1.9l-0.6-0.5h-1.8l-1.8,1.8v4.8"/>
	<path class="st4" d="M79,106.2l0.6,0.5v-0.5 M78.1,126l-0.9,0.9H79"/>
	<path class="st4" d="M79.6,126.9v-2.4l-1.5,1.5l0.9,0.9 M79.6,118.9v-1.8l-0.6-0.6h-1.8l-1.8,1.9v4.8 M79,116.5l0.6,0.6v-0.6
		 M78.1,136.4l-0.9,0.9H79"/>
	<path class="st4" d="M79.6,137.3v-2.4l-1.5,1.5l0.9,0.9 M79.6,129.3v-1.8l-0.6-0.6h-1.8l-1.8,1.9v4.7 M79,126.9l0.6,0.6v-0.6
		 M78.1,146.8l-0.4,0.4l1,0.5H79 M79.6,147.7v-2.4l-1.5,1.5l0.9,0.9"/>
	<path class="st4" d="M79.6,139.7v-1.8l-0.6-0.6h-1.8l-1.8,1.8v4.8"/>
	<path class="st4" d="M79,137.3l0.6,0.6v-0.6 M79,147.7h-0.3l0.8,0.5"/>
	<path class="st4" d="M79,147.7l0.5,0.5h0.1v-0.5"/>
</g>
<g class="st1">
	<path class="st4" d="M170.4,92.9h1.6l-0.8-1.6 M170.4,108.3h1.6l-0.8-1.6 M173.5,102.1h2.4v-1.4L175,99 M168.9,102.1l-1.5-3.1v3.1
		 M169.7,94.4h3l-0.7-1.5h-1.6 M170.4,123.7h1.6l-0.8-1.6 M175.9,116.1l-0.9-1.7l-1.5,3.1h2.4 M168.9,117.5l-1.5-3.1v3.1
		 M169.7,109.8h3l-0.7-1.5h-1.6 M170.4,139.1h1.6l-0.8-1.6 M175.9,131.5l-0.9-1.7l-1.5,3.1h2.4 M167.4,132.9h1.5l-1.5-3.1
		 M169.7,125.2h3l-0.7-1.5h-1.6 M175,145.2l-0.7,1.5l1.1-0.7 M168.9,148.3l-1.5-3.1v3.1 M169.7,140.6h3l-0.7-1.5h-1.6 M162.8,108.3
		h1.5l-0.8-1.6 M155.1,108.3h1.5l-0.7-1.6 M167.4,102.1V99l-1.6,3.1 M158.2,102.1h3l-1.5-3.1 M153.6,102.1L153,101l-1,0.5v0.6
		 M165.1,94.4l-0.2-0.3l-0.5,0.3 M162.8,123.7h1.5l-0.8-1.6 M155.1,123.7h1.5l-0.7-1.6 M167.4,114.4l-1.6,3.1h1.6 M158.2,117.5h3
		l-1.5-3.1 M153.6,117.5l-1.6-3.1v3.1 M162,109.8h3.1l-0.8-1.5h-1.5 M154.3,109.8h3.1l-0.8-1.5h-1.5 M162.8,139.1h1.5l-0.8-1.6
		 M155.1,139.1h1.5l-0.7-1.6 M165.8,132.9h1.6v-3.1 M161.2,132.9l-1.5-3.1l-1.5,3.1 M153.6,132.9l-1.6-3.1v3.1 M162,125.2h3.1
		l-0.8-1.5h-1.5 M154.3,125.2h3.1l-0.8-1.5h-1.5 M155.1,154.5h1.5l-0.7-1.6 M167.4,145.2l-1.6,3.1h1.6 M159.7,145.2l-1.5,3.1h3
		 M153.6,148.3l-1.6-3.1v3.1 M162,140.6h3.1l-0.8-1.5h-1.5 M154.3,140.6h3.1l-0.8-1.5h-1.5 M154.3,156h3.1l-0.8-1.5h-1.5
		 M147.4,108.3h1.6l-0.8-1.6 M141.3,108.3l-0.2-0.4l-0.7,0.4 M152,101.5l-1,0.6h1 M148.2,122.1l-0.8,1.6h1.6 M139.7,123.7h1.6
		l-0.8-1.6 M152,114.4l-1.5,3.1h1.5 M144.4,114.4l-1.6,3.1h3.1 M136.7,117.5h1.5l-1.5-3.1 M146.7,109.8h3l-0.7-1.5h-1.6
		 M139.5,108.8l-0.5,1h3.1l-0.8-1.5h-0.9 M147.4,139.1h1.6l-0.8-1.6 M139.7,139.1h1.6l-0.8-1.6 M152,129.8l-1.5,3.1h1.5
		 M142.8,132.9h3.1l-1.5-3.1 M138.2,132.9l-1.5-3.1v3.1 M149.7,125.2l-0.7-1.5h-1.6l-0.7,1.5 M139,125.2h3.1l-0.8-1.5h-1.6
		 M147.4,154.5h1.6l-0.8-1.6 M139.7,154.5h1.6l-0.8-1.6 M152,145.2l-1.5,3.1h1.5 M145.9,148.3l-1.5-3.1l-1.6,3.1 M138.2,148.3
		l-1.5-3.1v3.1 M146.7,140.6h3l-0.7-1.5h-1.6 M139,140.6h3.1l-0.8-1.5h-1.6 M142.8,163.7h2l0.9-0.5l-1.3-2.6 M138.2,163.7l-1.5-3.1
		v3.1 M146.7,156h3l-0.7-1.5h-1.6 M139,156h3.1l-0.8-1.5h-1.6 M132.8,122.1l-0.7,1.6h1.5 M125.6,123v0.7h0.3 M136.7,114.4l-1.6,3.1
		h1.6V114.4 M129.2,114.7l-0.5,0.3l-1.2,2.5h3 M132.8,137.5l-0.7,1.6h1.5 M125.6,138.4v0.7h0.3 M136.7,129.8l-1.6,3.1h1.6
		 M129,129.8l-1.5,3.1h3 M134.4,125.2l-0.8-1.5h-1.5l-0.8,1.5 M126.7,125.2l-0.8-1.5h-0.3v1.5 M132.8,152.9l-0.7,1.6h1.5
		 M125.6,153.8v0.7h0.3 M136.7,145.2l-1.6,3.1h1.6 M129,145.2l-1.5,3.1h3 M133.6,139.1h-1.5l-0.8,1.5h3.1 M126.7,140.6l-0.8-1.5
		h-0.3v1.5 M132.8,168.3l-0.7,1.6h1.5 M125.6,169.2v0.7h0.3 M136.7,160.6l-1.6,3.1h1.6 M130.5,163.7l-1.5-3.1l-1.5,3.1 M133.6,154.5
		h-1.5l-0.8,1.5h3.1 M126.7,156l-0.8-1.5h-0.3v1.5 M133.6,169.9h-1.5l-0.8,1.5h0.2l2.2-1.3 M125.9,169.9h-0.3v1.5h1.1"/>
</g>
<g class="st1">
	<path class="st4" d="M74.7,121.2l-0.4-0.4l-0.4,0.4 M75.4,119v-1.8l-0.3-0.2l-1.1,0.6"/>
	<path class="st4" d="M73.8,121.2L73.8,121.2l0.5-0.4l-0.1-0.1l-0.4-0.4 M74.7,125.8l-0.4-0.4l-0.4,0.4"/>
	<path class="st4" d="M73.8,121.3v0.7l1.6,1.6v-1.7l-0.7-0.7L73.8,121.3 M73.8,125.8L73.8,125.8l0.5-0.4l-0.1-0.1l-0.4-0.4"/>
	<path class="st4" d="M73.9,121.2L73.9,121.2L73.9,121.2 M73.9,130.4h0.8l-0.5-0.5l0.1,0.1 M73.9,125.8L73.9,125.8l-0.1,0.8l1.6,1.6
		v-1.7l-0.7-0.7"/>
	<path class="st4" d="M73.8,130.4L73.8,130.4l0.5-0.4l-0.1-0.1l-0.4-0.4 M73.8,125.9L73.8,125.9L73.8,125.9 M74.7,135l-0.4-0.4
		l-0.4,0.4 M74.7,130.4h-0.8l-0.1,0.1v0.8l1.6,1.5v-1.7"/>
	<path class="st4" d="M73.8,135L73.8,135l0.5-0.4l-0.1-0.1l-0.4-0.4 M73.8,130.5l0.1-0.1h-0.1 M73.9,139.6h0.8l-0.5-0.5l0.1,0.2
		 M73.9,135l-0.1,0.1v0.8l1.6,1.5v-1.7l-0.7-0.7"/>
	<path class="st4" d="M73.8,139.6L73.8,139.6l0.5-0.3l-0.1-0.2l-0.4-0.3 M73.8,135.1l0.1-0.1h-0.1 M74.7,144.2l-0.4-0.3l-0.4,0.3
		 M74.7,139.6h-0.8l-0.1,0.1v0.8l1.6,1.6v-1.8"/>
	<path class="st4" d="M73.8,144.2L73.8,144.2l0.5-0.3l-0.1-0.1l-0.4-0.4 M73.8,139.7l0.1-0.1h-0.1 M73.9,148.9h0.8l-0.5-0.5l0.1,0.1
		 M74.7,144.2h-0.8l-0.1,0.2v0.7l1.6,1.6v-1.8"/>
	<path class="st4" d="M73.8,148.9L73.8,148.9l0.5-0.4l-0.1-0.1l-0.4-0.4 M73.8,144.4l0.1-0.2h-0.1 M74.2,153l0.1,0.1 M74.7,153.5
		l-0.4-0.4l-0.4,0.4 M74.7,148.9h-0.8l-0.1,0.1v0.7l1.6,1.6v-1.7"/>
	<path class="st4" d="M73.8,153.5L73.8,153.5l0.5-0.4l-0.1-0.1l-0.4-0.4 M73.8,149l0.1-0.1h-0.1 M74.7,158.1l-0.4-0.4l-0.4,0.4
		 M74.7,153.5h-0.8l-0.1,0.1v0.7l1.6,1.6v-1.7"/>
	<path class="st4" d="M73.8,158.1L73.8,158.1l0.5-0.4l-0.1-0.1l-0.4-0.4 M73.8,153.6l0.1-0.1h-0.1 M73.9,162.7h0.8l-0.5-0.5l0.1,0.1
		 M73.9,158.1l-0.1,0.1v0.8l1.6,1.5v-1.7l-0.7-0.7"/>
	<path class="st4" d="M73.8,162.7L73.8,162.7l0.5-0.4l-0.1-0.1l-0.4-0.3 M73.8,158.2l0.1-0.1h-0.1 M74.7,167.3l-0.4-0.3l-0.4,0.3
		 M74.7,162.7h-0.8l-0.1,0.1v0.8l1.6,1.5v-1.7"/>
	<path class="st4" d="M73.8,167.3L73.8,167.3l0.5-0.3l-0.1-0.2l-0.4-0.3 M73.8,162.8l0.1-0.1h-0.1 M73.9,171.9h0.8l-0.5-0.4l0.1,0.1
		 M73.9,167.3l-0.1,0.1v0.8l1.6,1.6V168l-0.7-0.7"/>
	<path class="st4" d="M73.8,171.9L73.8,171.9l0.5-0.3l-0.1-0.1l-0.4-0.4 M73.8,167.4l0.1-0.1h-0.1 M74.7,171.9h-0.8l-0.1,0.2v0.7
		l1.6,1.6v-1.8"/>
	<path class="st4" d="M73.8,172.1l0.1-0.2h-0.1 M70.1,121.2l-0.4-0.4l-0.4,0.4 M72.9,121.2h0.9v-0.9l-1.6-1.7l-1.1,0.7"/>
	<path class="st4" d="M69.2,121.2L69.2,121.2l0.5-0.4l-0.1-0.1l-0.4-0.4v0.1 M70.1,125.8l-0.4-0.4l-0.4,0.4 M73.4,121.6l0.4,0.4
		v-0.7"/>
	<path class="st4" d="M73.8,125.8v-0.9l-3.7-3.7h-0.8l-0.1,0.1v0.7l3.7,3.8 M69.2,125.8L69.2,125.8l0.5-0.4l-0.1-0.1l-0.4-0.4
		 M73.8,121.3L73.8,121.3l-0.9-0.1l0.5,0.4"/>
	<path class="st4" d="M69.2,121.3L69.2,121.3L69.2,121.3 M69.3,130.4h0.8l-0.5-0.5l0.1,0.1 M73.4,126.3l0.4,0.3v-0.7 M73.8,130.4
		v-0.9l-3.7-3.7h-0.8l-0.1,0.1v0.7l3.7,3.8"/>
	<path class="st4" d="M69.2,130.4L69.2,130.4l0.5-0.4l-0.1-0.1l-0.4-0.4 M73.8,125.8h-0.9l0.4,0.4l0.1,0.1L73.8,125.8 M69.2,125.9
		L69.2,125.9L69.2,125.9 M70.1,135l-0.4-0.4l-0.4,0.4 M73.4,130.9v-0.1l0.4,0.5v-0.8 M73.8,135v-0.9l-3.7-3.7h-0.8l-0.1,0.1v0.8
		l3.7,3.7"/>
	<path class="st4" d="M69.2,135L69.2,135l0.5-0.4l-0.1-0.1l-0.4-0.4 M73.8,130.5v-0.1h-0.9l0.5,0.4v0.1 M69.2,130.5l0.1-0.1h-0.1
		 M69.3,139.6h0.8l-0.5-0.5l0.1,0.2 M73.4,135.5l-0.1-0.1l0.5,0.5v-0.8"/>
	<path class="st4" d="M73.8,139.6v-0.8l-3.7-3.8h-0.8l-0.1,0.1v0.8l3.7,3.7 M69.2,139.6L69.2,139.6l0.5-0.3l-0.1-0.2l-0.4-0.3
		 M73.8,135.1V135h-0.9l0.4,0.4l0.1,0.1"/>
	<path class="st4" d="M69.2,135.1l0.1-0.1h-0.1 M70.1,144.2l-0.4-0.3l-0.4,0.3 M73.4,140.1l0.4,0.4v-0.8 M73.8,144.2v-0.8l-3.7-3.8
		h-0.8l-0.1,0.1v0.8l3.7,3.7"/>
	<path class="st4" d="M69.2,144.2L69.2,144.2l0.5-0.3l-0.1-0.1l-0.4-0.4 M73.8,139.6h-0.9l0.5,0.5l0.4-0.4 M69.2,139.7l0.1-0.1h-0.1
		 M69.3,148.9h0.8l-0.5-0.5l0.1,0.1 M73.4,144.7l-0.1-0.1l0.5,0.5v-0.7 M73.8,148.9V148l-3.7-3.8h-0.8l-0.1,0.2v0.7l3.7,3.8"/>
	<path class="st4" d="M69.2,148.9L69.2,148.9l0.5-0.4l-0.1-0.1l-0.4-0.4 M73.8,144.4v-0.2h-0.9l0.4,0.4l0.1,0.1 M69.2,144.4l0.1-0.2
		h-0.1 M70.1,153.5l-0.4-0.4l-0.4,0.4 M69.6,153l0.1,0.1 M73.4,149.3l0.4,0.4V149 M73.8,153.5v-0.9l-3.7-3.7h-0.8l-0.1,0.1v0.7
		l3.7,3.8"/>
	<path class="st4" d="M69.2,153.5L69.2,153.5l0.5-0.4l-0.1-0.1l-0.4-0.4 M73.8,148.9h-0.9l0.5,0.4L73.8,148.9 M69.2,149l0.1-0.1
		h-0.1 M70.1,158.1l-0.4-0.4l-0.4,0.4 M73.4,154l0.4,0.3v-0.7 M73.8,158.1v-0.9l-3.7-3.7h-0.8l-0.1,0.1v0.7l3.7,3.8"/>
	<path class="st4" d="M69.2,158.1L69.2,158.1l0.5-0.4l-0.1-0.1l-0.4-0.4 M73.8,153.5h-0.9l0.5,0.5l0.4-0.4 M69.2,153.6l0.1-0.1h-0.1
		 M69.3,162.7h0.8l-0.5-0.5l0.1,0.1 M73.4,158.6l-0.1-0.1l0.5,0.5v-0.8"/>
	<path class="st4" d="M73.8,162.7v-0.8l-3.7-3.8h-0.8l-0.1,0.1v0.8l3.7,3.7 M69.2,162.7L69.2,162.7l0.5-0.4l-0.1-0.1l-0.4-0.3
		 M73.8,158.2v-0.1h-0.9l0.4,0.4l0.1,0.1"/>
	<path class="st4" d="M69.2,158.2l0.1-0.1h-0.1 M70.1,167.3l-0.4-0.3l-0.4,0.3 M73.4,163.2l0.4,0.4v-0.8 M73.8,167.3v-0.8l-3.7-3.8
		h-0.8l-0.1,0.1v0.8l3.7,3.7"/>
	<path class="st4" d="M69.2,167.3L69.2,167.3l0.5-0.3l-0.1-0.2l-0.4-0.3 M73.8,162.7h-0.9l0.5,0.5l0.4-0.4 M69.2,162.8l0.1-0.1h-0.1
		 M69.3,171.9h0.8l-0.5-0.4l0.1,0.1 M73.4,167.8l-0.1-0.1l0.5,0.5v-0.8"/>
	<path class="st4" d="M73.8,171.9v-0.8l-3.7-3.8h-0.8l-0.1,0.1v0.8l3.7,3.7 M69.2,171.9L69.2,171.9l0.5-0.3l-0.1-0.1l-0.4-0.4
		 M73.8,167.4v-0.1h-0.9l0.4,0.4l0.1,0.1"/>
	<path class="st4" d="M69.2,167.4l0.1-0.1h-0.1 M69.3,176.6h0.8l-0.5-0.5l0.1,0.1 M73.4,172.4l0.4,0.4v-0.7 M69.2,172.1v0.7l3.5,3.5
		l1.1-0.6l-3.7-3.8h-0.8"/>
	<path class="st4" d="M69.2,176.6L69.2,176.6l0.5-0.4l-0.1-0.1l-0.4-0.4 M73.8,171.9h-0.9l0.4,0.4l0.1,0.1l0.4-0.3 M69.3,171.9
		L69.3,171.9l-0.1,0.2 M69.3,176.6l-0.1,0.1v0.7l0.6,0.6l1.1-0.6l-0.8-0.8"/>
	<path class="st4" d="M69.2,176.7l0.1-0.1h-0.1 M69.2,121.2v-0.8l-1.1,0.6l0.2,0.2 M65.4,125.8l-0.3-0.4l-0.4,0.4 M68.8,121.6
		l0.4,0.4v-0.7 M69.2,125.8v-0.9l-2.9-2.9l-1.1,0.7l3.1,3.1 M64.6,125.8L64.6,125.8l0.5-0.4l-0.5-0.5"/>
	<path class="st4" d="M69.2,121.2h-0.9l0.5,0.4L69.2,121.2 M65.4,130.4l-0.3-0.4l-0.4,0.4 M68.8,126.3l0.4,0.3v-0.7 M69.2,130.4
		v-0.9l-3.8-3.7h-0.7l-0.1,0.1v0.7l3.7,3.8 M64.6,130.4L64.6,130.4l0.5-0.4l-0.1-0.1l-0.4-0.4"/>
	<path class="st4" d="M69.2,125.8h-0.9l0.5,0.5L69.2,125.8 M64.6,125.9L64.6,125.9L64.6,125.9 M65.4,135l-0.3-0.4l-0.4,0.4
		 M68.8,130.9l0.4,0.4v-0.8 M69.2,135v-0.9l-3.8-3.7h-0.7l-0.1,0.1v0.8l3.7,3.7 M64.6,135L64.6,135l0.5-0.4l-0.5-0.5 M69.2,130.4
		h-0.9l0.5,0.5l0.4-0.4 M64.6,130.5l0.1-0.1h-0.1 M65.4,139.6l-0.3-0.3l-0.4,0.3 M68.8,135.5l0.4,0.4v-0.8"/>
	<path class="st4" d="M69.2,139.6v-0.8l-3.8-3.8h-0.7l-0.1,0.1v0.8l3.7,3.7 M64.6,139.6L64.6,139.6l0.5-0.3l-0.1-0.2l-0.4-0.3
		 M69.2,135h-0.9l0.4,0.4l0.1,0.1l0.4-0.4"/>
	<path class="st4" d="M64.6,135.1l0.1-0.1h-0.1 M65.4,144.2l-0.3-0.3l-0.4,0.3 M68.8,140.1l0.4,0.4v-0.8 M69.2,144.2v-0.8l-3.8-3.8
		h-0.7l-0.1,0.1v0.8l3.7,3.7 M64.6,144.2L64.6,144.2l0.5-0.3l-0.5-0.5 M69.2,139.6h-0.9l0.5,0.5l0.4-0.4"/>
	<path class="st4" d="M64.6,139.7l0.1-0.1h-0.1 M65.4,148.9l-0.3-0.4l-0.4,0.4 M68.8,144.7l0.4,0.4v-0.7 M69.2,148.9V148l-3.8-3.8
		h-0.7l-0.1,0.2v0.7l3.7,3.8 M64.6,148.9L64.6,148.9l0.5-0.4l-0.5-0.5 M69.2,144.2h-0.9l0.4,0.4l0.1,0.1l0.4-0.3"/>
	<path class="st4" d="M64.6,144.4l0.1-0.2h-0.1 M65.4,153.5l-0.3-0.4l-0.4,0.4 M68.8,149.3l0.4,0.4V149 M69.2,153.5v-0.9l-3.8-3.7
		h-0.7l-0.1,0.1v0.7l3.7,3.8 M64.6,153.5L64.6,153.5l0.5-0.4l-0.5-0.5 M69.2,148.9h-0.9l0.5,0.4L69.2,148.9 M64.6,149l0.1-0.1h-0.1
		 M65.4,158.1l-0.3-0.4l-0.4,0.4 M68.8,154l0.4,0.3v-0.7"/>
	<path class="st4" d="M69.2,158.1v-0.9l-3.8-3.7h-0.7l-0.1,0.1v0.7l3.7,3.8 M64.6,158.1L64.6,158.1l0.5-0.4l-0.5-0.5 M69.2,153.5
		h-0.9l0.5,0.5l0.4-0.4 M64.6,153.6l0.1-0.1h-0.1 M65.4,162.7l-0.3-0.4l-0.4,0.4 M68.8,158.6l0.4,0.4v-0.8"/>
	<path class="st4" d="M69.2,162.7v-0.8l-3.8-3.8h-0.7l-0.1,0.1v0.8l3.7,3.7 M64.6,162.7L64.6,162.7l0.5-0.4l-0.1-0.1l-0.4-0.3
		 M69.2,158.1h-0.9l0.4,0.4l0.1,0.1l0.4-0.4"/>
	<path class="st4" d="M64.6,158.2l0.1-0.1h-0.1 M65.4,167.3l-0.3-0.3l-0.4,0.3 M68.8,163.2l0.4,0.4v-0.8 M69.2,167.3v-0.8l-3.8-3.8
		h-0.7l-0.1,0.1v0.8l3.7,3.7 M64.6,167.3L64.6,167.3l0.5-0.3l-0.5-0.5 M69.2,162.7h-0.9l0.5,0.5l0.4-0.4"/>
	<path class="st4" d="M64.6,162.8l0.1-0.1h-0.1 M65.4,171.9l-0.3-0.3l-0.4,0.3 M68.8,167.8l0.4,0.4v-0.8 M64.6,167.4v0.8l3.7,3.7
		h0.9v-0.8l-3.8-3.8h-0.7 M64.6,171.9L64.6,171.9l0.5-0.3l-0.5-0.5 M69.2,167.3h-0.9l0.4,0.4l0.1,0.1l0.4-0.4"/>
	<path class="st4" d="M64.7,167.3L64.7,167.3l-0.1,0.1 M64.7,176.6h0.7l-0.4-0.5l0.1,0.1 M68.8,172.4l0.4,0.4v-0.7 M69.2,176.6v-0.9
		l-3.8-3.8h-0.7l-0.1,0.2v0.7l3.7,3.8"/>
	<path class="st4" d="M64.6,176.6L64.6,176.6l0.5-0.4l-0.1-0.1l-0.4-0.4 M69.2,171.9h-0.9l0.5,0.5l0.4-0.3 M64.6,172.1l0.1-0.2h-0.1
		 M68.8,177.1l0.4,0.3v-0.7 M64.6,176.7v0.7l2.3,2.3l1.1-0.6l-2.6-2.5h-0.7 M65,180.8l-0.4-0.5v0.7 M69.2,176.6h-0.9l0.5,0.5
		l0.4-0.4"/>
	<path class="st4" d="M64.7,176.6L64.7,176.6l-0.1,0.1 M60.8,125.8l-0.4-0.4l-0.3,0.4 M64.6,125.8v-0.9l-1.2-1.2l-1.1,0.6l1.4,1.5"
		/>
	<path class="st4" d="M60.1,125.8l0.3-0.4l-0.4,0.3v0.1 M60.1,130.4h0.7l-0.5-0.5l0.1,0.1 M64.2,126.3L64.2,126.3l0.4,0.3v-0.7"/>
	<path class="st4" d="M64.6,130.4v-0.9l-3.8-3.7h-0.7l-0.1,0.1v0.7l3.7,3.8 M60,130.4L60,130.4l0.4-0.4l-0.1-0.1l-0.3-0.4
		 M64.6,125.9L64.6,125.9l-0.9-0.1l0.4,0.4l0.1,0.1"/>
	<path class="st4" d="M60,125.9L60,125.9L60,125.9 M60.8,135l-0.4-0.4l-0.3,0.4 M64.2,130.9l-0.1-0.1l0.5,0.5v-0.8 M64.6,135v-0.9
		l-3.8-3.7h-0.7l-0.1,0.1v0.8l3.7,3.7"/>
	<path class="st4" d="M60,135L60,135l0.4-0.4l-0.1-0.1l-0.3-0.4 M64.6,130.5v-0.1h-0.9l0.4,0.4l0.1,0.1 M60,130.5l0.1-0.1H60
		 M60.1,139.6h0.7l-0.5-0.5l0.1,0.2 M64.2,135.5l-0.1-0.1l0.5,0.5v-0.8"/>
	<path class="st4" d="M64.6,139.6v-0.8l-3.8-3.8h-0.7l-0.1,0.1v0.8l3.7,3.7 M60,139.6L60,139.6l0.4-0.3l-0.1-0.2l-0.3-0.3
		 M64.6,135.1V135h-0.9l0.4,0.4l0.1,0.1"/>
	<path class="st4" d="M60,135.1l0.1-0.1H60 M60.8,144.2l-0.4-0.3l-0.3,0.3 M64.2,140.1l0.4,0.4v-0.8 M64.6,144.2v-0.8l-3.8-3.8h-0.7
		l-0.1,0.1v0.8l3.7,3.7"/>
	<path class="st4" d="M60,144.2L60,144.2l0.4-0.3l-0.1-0.1l-0.3-0.4 M64.6,139.6h-0.9l0.4,0.4l0.1,0.1l0.4-0.4 M60,139.7l0.1-0.1H60
		 M60.1,148.9h0.7l-0.5-0.5l0.1,0.1 M64.2,144.7l-0.1-0.1l0.5,0.5v-0.7"/>
	<path class="st4" d="M64.6,148.9V148l-3.8-3.8h-0.7l-0.1,0.2v0.7l3.7,3.8 M60,148.9L60,148.9l0.4-0.4l-0.1-0.1L60,148 M64.6,144.4
		v-0.2h-0.9l0.4,0.4l0.1,0.1"/>
	<path class="st4" d="M60,144.4l0.1-0.2H60 M60.8,153.5l-0.4-0.4l-0.3,0.4 M60.3,153l0.1,0.1 M64.2,149.3l-0.1-0.1l0.5,0.5V149
		 M64.6,153.5v-0.9l-3.8-3.7h-0.7L60,149v0.7l3.7,3.8"/>
	<path class="st4" d="M60,153.5L60,153.5l0.4-0.4l-0.1-0.1l-0.3-0.4 M64.6,149v-0.1h-0.9l0.4,0.3l0.1,0.1 M60,149l0.1-0.1H60
		 M60.8,158.1l-0.4-0.4l-0.3,0.4 M64.2,154l0.4,0.3v-0.7 M64.1,153.9l0.1,0.1L64.1,153.9"/>
	<path class="st4" d="M64.6,158.1v-0.9l-3.8-3.7h-0.7l-0.1,0.1v0.7l3.7,3.8 M60,158.1L60,158.1l0.4-0.4l-0.1-0.1l-0.3-0.4
		 M64.6,153.5h-0.9l0.4,0.4l0.1,0.1l0.4-0.4"/>
	<path class="st4" d="M60,153.6l0.1-0.1H60 M60.1,162.7h0.7l-0.5-0.5l0.1,0.1 M64.2,158.6l-0.1-0.1l0.5,0.5v-0.8 M64.6,162.7v-0.8
		l-3.8-3.8h-0.7l-0.1,0.1v0.8l3.7,3.7"/>
	<path class="st4" d="M60,162.7L60,162.7l0.4-0.4l-0.1-0.1l-0.3-0.3 M64.6,158.2v-0.1h-0.9l0.4,0.4l0.1,0.1 M60,158.2l0.1-0.1H60
		 M60.8,167.3l-0.4-0.3l-0.3,0.3 M64.2,163.2l0.4,0.4v-0.8 M60,162.8v0.8l3.7,3.7h0.9v-0.8l-3.8-3.8h-0.7"/>
	<path class="st4" d="M60,167.3L60,167.3l0.4-0.3l-0.1-0.2l-0.3-0.3 M64.6,162.7h-0.9l0.4,0.4l0.1,0.1l0.4-0.4 M60.1,162.7
		L60.1,162.7l-0.1,0.1 M60.1,171.9h0.7l-0.5-0.4l0.1,0.1 M64.2,167.8l-0.1-0.1l0.5,0.5v-0.8"/>
	<path class="st4" d="M64.6,171.9v-0.8l-3.8-3.8h-0.7l-0.1,0.1v0.8l3.7,3.7 M60,171.9L60,171.9l0.4-0.3l-0.1-0.1l-0.3-0.4
		 M64.6,167.4v-0.1h-0.9l0.4,0.4l0.1,0.1"/>
	<path class="st4" d="M60,167.4l0.1-0.1H60 M60.1,176.6h0.7l-0.5-0.5l0.1,0.1 M64.2,172.4l-0.1-0.1l0.5,0.5v-0.7 M60,172.1v0.7
		l3.7,3.8h0.9v-0.9l-3.8-3.8h-0.7"/>
	<path class="st4" d="M60,176.6L60,176.6l0.4-0.4l-0.1-0.1l-0.3-0.4 M64.6,172.1v-0.2h-0.9l0.4,0.4l0.1,0.1 M60.1,171.9L60.1,171.9
		l-0.1,0.2 M60.8,181.2l-0.4-0.4l-0.3,0.4 M64.2,177.1l-0.1-0.1l0.5,0.4v-0.7 M60,176.7v0.7l3.7,3.8h0.6l0.3-0.2v-0.7l-3.8-3.7h-0.7
		"/>
	<path class="st4" d="M60,181.2L60,181.2l0.4-0.4l-0.4-0.5 M64.6,176.7v-0.1h-0.9l0.4,0.4l0.1,0.1 M60.1,176.6L60.1,176.6l-0.1,0.1
		 M60,181.3v0.7l1,1.1l1.1-0.6l-1.3-1.3h-0.7 M63.9,181.4l0.4-0.2h-0.6"/>
	<path class="st4" d="M60.1,181.2L60.1,181.2l-0.1,0.1 M60,125.8L60,125.8h-0.2 M56.2,130.4l-0.4-0.4l-0.4,0.4 M59.6,126.3l0.4,0.3
		v-0.7 M60,130.4v-0.9l-2.5-2.4l-1.1,0.6l2.7,2.7 M55.3,130.4L55.3,130.4l0.5-0.4l-0.1-0.1l-0.4-0.4"/>
	<path class="st4" d="M60,125.8h-0.2l-0.4,0.2l0.2,0.3L60,125.8 M56.2,135l-0.4-0.4l-0.4,0.4 M59.6,130.9l0.4,0.4v-0.8 M60,135v-0.9
		l-3.8-3.7h-0.8l-0.1,0.1v0.8l3.8,3.7 M55.3,135L55.3,135l0.5-0.4l-0.5-0.5 M60,130.4h-0.9l0.5,0.5l0.4-0.4 M55.3,130.5l0.1-0.1
		h-0.1 M56.2,139.6l-0.4-0.3l-0.4,0.3 M59.6,135.5l0.4,0.4v-0.8"/>
	<path class="st4" d="M60,139.6v-0.8l-3.8-3.8h-0.8l-0.1,0.1v0.8l3.8,3.7 M55.3,139.6L55.3,139.6l0.5-0.3l-0.1-0.2l-0.4-0.3 M60,135
		h-0.9l0.4,0.4l0.1,0.1l0.4-0.4"/>
	<path class="st4" d="M55.3,135.1l0.1-0.1h-0.1 M56.2,144.2l-0.4-0.3l-0.4,0.3 M59.6,140.1l0.4,0.4v-0.8 M60,144.2v-0.8l-3.8-3.8
		h-0.8l-0.1,0.1v0.8l3.8,3.7 M55.3,144.2L55.3,144.2l0.5-0.3l-0.5-0.5 M60,139.6h-0.9l0.5,0.5l0.4-0.4"/>
	<path class="st4" d="M55.3,139.7l0.1-0.1h-0.1 M56.2,148.9l-0.4-0.4l-0.4,0.4 M59.6,144.7l0.4,0.4v-0.7 M60,148.9V148l-3.8-3.8
		h-0.8l-0.1,0.2v0.7l3.8,3.8 M55.3,148.9L55.3,148.9l0.5-0.4l-0.5-0.5 M60,144.2h-0.9l0.4,0.4l0.1,0.1l0.4-0.3"/>
	<path class="st4" d="M55.3,144.4l0.1-0.2h-0.1 M56.2,153.5l-0.4-0.4l-0.4,0.4 M59.6,149.3l0.4,0.4V149 M60,153.5v-0.9l-3.8-3.7
		h-0.8l-0.1,0.1v0.7l3.8,3.8 M55.3,153.5L55.3,153.5l0.5-0.4l-0.5-0.5 M60,148.9h-0.9l0.5,0.4L60,148.9 M55.3,149l0.1-0.1h-0.1
		 M56.2,158.1l-0.4-0.4l-0.4,0.4 M59.6,154l0.4,0.3v-0.7"/>
	<path class="st4" d="M60,158.1v-0.9l-3.8-3.7h-0.8l-0.1,0.1v0.7l3.8,3.8 M55.3,158.1L55.3,158.1l0.5-0.4l-0.5-0.5 M60,153.5h-0.9
		l0.5,0.5l0.4-0.4 M55.3,153.6l0.1-0.1h-0.1 M56.2,162.7l-0.4-0.4l-0.4,0.4 M59.6,158.6L60,159v-0.8"/>
	<path class="st4" d="M55.3,158.2v0.8l3.8,3.7H60v-0.8l-3.8-3.8h-0.8 M55.3,162.7L55.3,162.7l0.5-0.4l-0.1-0.1l-0.4-0.3 M60,158.1
		h-0.9l0.4,0.4l0.1,0.1l0.4-0.4"/>
	<path class="st4" d="M55.4,158.1L55.4,158.1l-0.1,0.1 M56.2,167.3l-0.4-0.3l-0.4,0.3 M59.6,163.2l0.4,0.4v-0.8 M60,167.3v-0.8
		l-3.8-3.8h-0.8l-0.1,0.1v0.8l3.8,3.7 M55.3,167.3L55.3,167.3l0.5-0.3l-0.5-0.5 M60,162.7h-0.9l0.5,0.5l0.4-0.4"/>
	<path class="st4" d="M55.3,162.8l0.1-0.1h-0.1 M56.2,171.9l-0.4-0.3l-0.4,0.3 M59.6,167.8l0.4,0.4v-0.8 M55.3,167.4v0.8l3.8,3.7H60
		v-0.8l-3.8-3.8h-0.8 M55.3,171.9L55.3,171.9l0.5-0.3l-0.5-0.5 M60,167.3h-0.9l0.4,0.4l0.1,0.1l0.4-0.4"/>
	<path class="st4" d="M55.4,167.3L55.4,167.3l-0.1,0.1 M55.4,176.6h0.8l-0.4-0.5v0.1 M59.6,172.4l0.4,0.4v-0.7 M55.3,172.1v0.7
		l3.8,3.8H60v-0.9l-3.8-3.8h-0.8"/>
	<path class="st4" d="M55.3,176.6L55.3,176.6l0.5-0.4v-0.1l-0.5-0.4 M60,171.9h-0.9l0.5,0.5l0.4-0.3 M55.3,171.9v0.2V171.9
		 M56.2,181.2l-0.4-0.4l-0.4,0.4 M59.6,177.1l0.4,0.3v-0.7 M55.3,176.7v0.7l3.8,3.8H60v-0.9l-3.8-3.7h-0.8 M55.3,181.2L55.3,181.2
		l0.5-0.4l-0.5-0.5 M60,176.6h-0.9l0.5,0.5l0.4-0.4"/>
	<path class="st4" d="M55.4,176.6L55.4,176.6l-0.1,0.1 M56.2,185.8l-0.4-0.4l-0.4,0.4 M59.6,181.7L60,182v-0.7 M55.3,181.3v0.7
		l2.8,2.8l1.1-0.6l-3-3h-0.8 M55.3,185.8L55.3,185.8l0.5-0.4l-0.5-0.5 M60,181.2h-0.9l0.5,0.5l0.4-0.4 M55.4,181.2L55.4,181.2
		l-0.1,0.1 M55.3,185.9v0.5l0.9-0.6h-0.8"/>
	<path class="st4" d="M55.4,185.8L55.4,185.8l-0.1,0.1 M55.3,130.4v-0.9l-0.7-0.7l-1.1,0.6l1,1 M51.6,135l-0.4-0.4l-0.4,0.4
		 M55,130.9l-0.1-0.1l0.4,0.5v-0.8 M55.3,135v-0.9l-3.6-3.6l-1,0.5v0.3l3.8,3.7"/>
	<path class="st4" d="M50.7,135L50.7,135l0.5-0.4l-0.1-0.1l-0.4-0.4 M55.3,130.5v-0.1h-0.8l0.4,0.4l0.1,0.1 M50.8,139.6h0.8
		l-0.5-0.5l0.1,0.2 M55,135.5l-0.1-0.1l0.4,0.5v-0.8"/>
	<path class="st4" d="M55.3,139.6v-0.8l-3.7-3.8h-0.8l-0.1,0.1v0.8l3.8,3.7 M50.7,139.6L50.7,139.6l0.5-0.3l-0.1-0.2l-0.4-0.3
		 M55.3,135.1V135h-0.8l0.4,0.4l0.1,0.1"/>
	<path class="st4" d="M50.7,135.1l0.1-0.1h-0.1 M51.6,144.2l-0.4-0.3l-0.4,0.3 M55,140.1l0.3,0.4v-0.8 M55.3,144.2v-0.8l-3.7-3.8
		h-0.8l-0.1,0.1v0.8l3.8,3.7"/>
	<path class="st4" d="M50.7,144.2L50.7,144.2l0.5-0.3l-0.1-0.1l-0.4-0.4 M55.3,139.6h-0.8l0.4,0.4l0.1,0.1l0.3-0.4 M50.7,139.7
		l0.1-0.1h-0.1 M50.8,148.9h0.8l-0.5-0.5l0.1,0.1 M55,144.7l-0.1-0.1l0.4,0.5v-0.7"/>
	<path class="st4" d="M55.3,148.9V148l-3.7-3.8h-0.8l-0.1,0.2v0.7l3.8,3.8 M50.7,148.9L50.7,148.9l0.5-0.4l-0.1-0.1l-0.4-0.4
		 M55.3,144.4v-0.2h-0.8l0.4,0.4l0.1,0.1"/>
	<path class="st4" d="M50.7,144.4l0.1-0.2h-0.1 M51.6,153.5l-0.4-0.4l-0.4,0.4 M51.1,153l0.1,0.1 M55,149.3l-0.1-0.1l0.4,0.5V149
		 M55.3,153.5v-0.9l-3.7-3.7h-0.8l-0.1,0.1v0.7l3.8,3.8"/>
	<path class="st4" d="M50.7,153.5L50.7,153.5l0.5-0.4l-0.1-0.1l-0.4-0.4 M55.3,149v-0.1h-0.8l0.4,0.3l0.1,0.1 M50.7,149l0.1-0.1
		h-0.1 M51.6,158.1l-0.4-0.4l-0.4,0.4 M54.9,153.9L55,154L54.9,153.9 M55,154l0.3,0.3v-0.7"/>
	<path class="st4" d="M50.7,153.6v0.7l3.8,3.8h0.8v-0.9l-3.7-3.7L50.7,153.6 M50.7,158.1L50.7,158.1l0.5-0.4l-0.1-0.1l-0.4-0.4
		 M55.3,153.5h-0.8l0.4,0.4L55,154l0.3-0.4 M50.8,153.5L50.8,153.5l-0.1,0.1 M50.8,162.7h0.8l-0.5-0.5l0.1,0.1 M55,158.6l-0.1-0.1
		l0.4,0.5v-0.8"/>
	<path class="st4" d="M55.3,162.7v-0.8l-3.7-3.8h-0.8l-0.1,0.1v0.8l3.8,3.7 M50.7,162.7L50.7,162.7l0.5-0.4l-0.1-0.1l-0.4-0.3
		 M55.3,158.2v-0.1h-0.8l0.4,0.4l0.1,0.1"/>
	<path class="st4" d="M50.7,158.2l0.1-0.1h-0.1 M51.6,167.3l-0.4-0.3l-0.4,0.3 M55,163.2l0.3,0.4v-0.8 M50.7,162.8v0.8l3.8,3.7h0.8
		v-0.8l-3.7-3.8h-0.8"/>
	<path class="st4" d="M50.7,167.3L50.7,167.3l0.5-0.3l-0.1-0.2l-0.4-0.3 M55.3,162.7h-0.8l0.4,0.4l0.1,0.1l0.3-0.4 M50.8,162.7
		L50.8,162.7l-0.1,0.1 M50.8,171.9h0.8l-0.5-0.4l0.1,0.1 M55,167.8l-0.1-0.1l0.4,0.5v-0.8"/>
	<path class="st4" d="M55.3,171.9v-0.8l-3.7-3.8h-0.8l-0.1,0.1v0.8l3.8,3.7 M50.7,171.9L50.7,171.9l0.5-0.3l-0.1-0.1l-0.4-0.4
		 M55.3,167.4v-0.1h-0.8l0.4,0.4l0.1,0.1"/>
	<path class="st4" d="M50.7,167.4l0.1-0.1h-0.1 M50.8,176.6h0.8l-0.5-0.5l0.1,0.1 M55.3,172.8v-0.7l-0.3,0.3l-0.1-0.1 M50.7,172.1
		v0.7l3.8,3.8h0.8v-0.9l-3.7-3.8h-0.8"/>
	<path class="st4" d="M50.7,176.6L50.7,176.6l0.5-0.4l-0.1-0.1l-0.4-0.4 M55.3,172.1v-0.2h-0.8l0.4,0.4l0.1,0.1 M50.8,171.9
		L50.8,171.9l-0.1,0.2 M51.6,181.2l-0.4-0.4l-0.4,0.4 M55,177.1l-0.1-0.1l0.4,0.4v-0.7"/>
	<path class="st4" d="M50.7,176.7v0.7l3.8,3.8h0.8v-0.9l-3.7-3.7L50.7,176.7 M50.7,181.2L50.7,181.2l0.5-0.4l-0.5-0.5 M55.3,176.7
		v-0.1h-0.8l0.4,0.4l0.1,0.1 M50.8,176.6L50.8,176.6l-0.1,0.1 M51.6,185.8l-0.4-0.4l-0.4,0.4 M55,181.7l-0.1-0.1l0.4,0.4v-0.7
		 M50.7,181.3v0.7l3.8,3.8h0.8v-0.9l-3.7-3.7L50.7,181.3"/>
	<path class="st4" d="M50.7,185.8L50.7,185.8l0.5-0.4l-0.5-0.5 M55.3,181.3v-0.1h-0.8l0.4,0.4l0.1,0.1 M50.8,181.2L50.8,181.2
		l-0.1,0.1 M55,186.3l-0.1-0.1l0.3,0.3l0.1-0.1v-0.5 M50.7,185.9v0.8l1.5,1.5l1.1-0.7l-1.7-1.7L50.7,185.9"/>
	<path class="st4" d="M55.3,185.9v-0.1h-0.8l0.4,0.4l0.1,0.1 M50.8,185.8L50.8,185.8l-0.1,0.1 M47,135l-0.4-0.4l-0.4,0.4
		 M50.6,131.1l0.1,0.2V131 M50.7,135v-0.9l-2-1.9l-1.1,0.6l2.3,2.2"/>
	<path class="st4" d="M46.1,135L46.1,135l0.5-0.4l-0.5-0.5 M46.5,139.1l0.1,0.2 M47,139.6l-0.4-0.3l-0.4,0.3 M50.3,135.5l0.4,0.4
		v-0.8 M50.7,139.6v-0.8L47,135h-0.8l-0.1,0.1v0.8l3.8,3.7"/>
	<path class="st4" d="M46.1,139.6L46.1,139.6l0.5-0.3l-0.1-0.2l-0.4-0.3 M50.7,135h-0.8l0.3,0.4l0.1,0.1l0.4-0.4 M46.1,135.1
		l0.1-0.1h-0.1 M47,144.2l-0.4-0.3l-0.4,0.3 M50.3,140.1l0.4,0.4v-0.8"/>
	<path class="st4" d="M50.7,144.2v-0.8l-3.7-3.8h-0.8l-0.1,0.1v0.8l3.8,3.7 M46.1,144.2L46.1,144.2l0.5-0.3l-0.5-0.5 M50.7,139.6
		h-0.8l0.4,0.5l0.4-0.4"/>
	<path class="st4" d="M46.1,139.7l0.1-0.1h-0.1 M47,148.9l-0.4-0.4l-0.4,0.4 M50.3,144.7l0.4,0.4v-0.7 M50.7,148.9V148l-3.7-3.8
		h-0.8l-0.1,0.2v0.7l3.8,3.8"/>
	<path class="st4" d="M46.1,148.9L46.1,148.9l0.5-0.4l-0.5-0.5 M50.7,144.2h-0.8l0.3,0.4l0.1,0.1l0.4-0.3 M46.1,144.4l0.1-0.2h-0.1
		 M47,153.5l-0.4-0.4l-0.4,0.4 M50.3,149.3l0.4,0.4V149"/>
	<path class="st4" d="M46.1,149v0.7l3.8,3.8h0.8v-0.9l-3.7-3.7L46.1,149 M46.1,153.5L46.1,153.5l0.5-0.4l-0.5-0.5 M50.7,148.9h-0.8
		l0.4,0.4L50.7,148.9"/>
	<path class="st4" d="M46.2,148.9L46.2,148.9l-0.1,0.1 M47,158.1l-0.4-0.4l-0.4,0.4 M50.3,154l0.4,0.3v-0.7 M50.7,158.1v-0.9
		l-3.7-3.7h-0.8l-0.1,0.1v0.7l3.8,3.8"/>
	<path class="st4" d="M46.1,158.1L46.1,158.1l0.5-0.4l-0.5-0.5 M50.7,153.5h-0.8l0.4,0.5l0.4-0.4 M46.1,153.6l0.1-0.1h-0.1
		 M46.5,162.2l0.1,0.1 M47,162.7l-0.4-0.4l-0.4,0.4 M50.3,158.6l0.4,0.4v-0.8"/>
	<path class="st4" d="M46.1,158.2v0.8l3.8,3.7h0.8v-0.8l-3.7-3.8h-0.8 M46.1,162.7L46.1,162.7l0.5-0.4l-0.1-0.1l-0.4-0.3
		 M50.7,158.1h-0.8l0.3,0.4l0.1,0.1l0.4-0.4"/>
	<path class="st4" d="M46.2,158.1L46.2,158.1l-0.1,0.1 M47,167.3l-0.4-0.3l-0.4,0.3 M50.3,163.2l0.4,0.4v-0.8 M50.7,167.3v-0.8
		l-3.7-3.8h-0.8l-0.1,0.1v0.8l3.8,3.7"/>
	<path class="st4" d="M46.1,167.3L46.1,167.3l0.5-0.3l-0.5-0.5 M50.7,162.7h-0.8l0.4,0.5l0.4-0.4 M46.1,162.8l0.1-0.1h-0.1
		 M47,171.9l-0.4-0.3l-0.4,0.3 M50.3,167.8l0.4,0.4v-0.8"/>
	<path class="st4" d="M46.1,167.4v0.8l3.8,3.7h0.8v-0.8l-3.7-3.8h-0.8 M46.1,171.9L46.1,171.9l0.5-0.3l-0.1-0.1l-0.4-0.4
		 M50.7,167.3h-0.8l0.3,0.4l0.1,0.1l0.4-0.4"/>
	<path class="st4" d="M46.2,167.3L46.2,167.3l-0.1,0.1 M46.2,176.6H47l-0.5-0.5l0.1,0.1 M50.3,172.4l0.4,0.4v-0.7 M46.1,172.1v0.7
		l3.8,3.8h0.8v-0.9l-3.7-3.8h-0.8"/>
	<path class="st4" d="M46.1,176.6L46.1,176.6l0.5-0.4l-0.1-0.1l-0.4-0.4 M50.7,171.9h-0.8l0.4,0.5l0.4-0.3 M46.2,171.9L46.2,171.9
		l-0.1,0.2 M47,181.2l-0.4-0.4l-0.4,0.4 M50.3,177.1l0.4,0.3v-0.7"/>
	<path class="st4" d="M46.1,176.7v0.7l3.8,3.8h0.8v-0.9l-3.7-3.7L46.1,176.7 M46.1,181.2L46.1,181.2l0.5-0.4l-0.5-0.5 M50.7,176.6
		h-0.8l0.4,0.5l0.4-0.4"/>
	<path class="st4" d="M46.2,176.6L46.2,176.6l-0.1,0.1 M47,185.8l-0.4-0.4l-0.4,0.4 M50.3,181.7l0.4,0.3v-0.7 M46.1,181.3v0.7
		l3.8,3.8h0.8v-0.9l-3.7-3.7L46.1,181.3"/>
	<path class="st4" d="M46.1,185.8L46.1,185.8l0.5-0.4l-0.5-0.5 M50.7,181.2h-0.8l0.4,0.5l0.4-0.4 M46.2,181.2L46.2,181.2l-0.1,0.1
		 M46.5,189.9l0.1,0.1 M47,190.4l-0.4-0.4l-0.4,0.4 M50.3,186.3l0.4,0.4v-0.8 M46.1,185.9v0.8l3.2,3.2l1.1-0.7l-3.4-3.4L46.1,185.9"
		/>
	<path class="st4" d="M46.1,190.4L46.1,190.4l0.5-0.4l-0.1-0.1l-0.4-0.3 M50.7,185.8h-0.8l0.4,0.5l0.4-0.4 M46.2,185.8L46.2,185.8
		l-0.1,0.1 M46.1,190.5v0.8l0.3,0.2l1.1-0.6l-0.5-0.5h-0.8"/>
	<path class="st4" d="M46.2,190.4L46.2,190.4l-0.1,0.1 M46.1,135v-0.9l-0.3-0.2l-1.1,0.6l0.5,0.5 M41.6,139.6h0.8l-0.5-0.5l0.1,0.2
		 M45.7,135.5l0.4,0.4v-0.8 M46.1,139.6v-0.8l-3.2-3.3l-1.1,0.7l3.4,3.4"/>
	<path class="st4" d="M41.5,139.6L41.5,139.6l0.5-0.3l-0.1-0.2l-0.4-0.3 M46.1,135h-0.9l0.4,0.4l0.1,0.1l0.4-0.4 M42.4,144.2
		l-0.4-0.3l-0.4,0.3 M45.7,140.1l0.4,0.4v-0.8"/>
	<path class="st4" d="M46.1,144.2v-0.8l-3.7-3.8h-0.8l-0.1,0.1v0.8l3.7,3.7 M41.5,144.2L41.5,144.2l0.5-0.3l-0.5-0.5 M46.1,139.6
		h-0.9l0.5,0.5l0.4-0.4"/>
	<path class="st4" d="M41.5,139.7l0.1-0.1h-0.1 M42.4,148.9l-0.4-0.4l-0.4,0.4 M45.7,144.7l0.4,0.4v-0.7 M41.5,144.4v0.7l3.7,3.8
		h0.9V148l-3.7-3.8h-0.8"/>
	<path class="st4" d="M41.5,148.9L41.5,148.9l0.5-0.4l-0.5-0.5 M46.1,144.2h-0.9l0.4,0.4l0.1,0.1l0.4-0.3 M41.6,144.2L41.6,144.2
		l-0.1,0.2 M42.4,153.5l-0.4-0.4l-0.4,0.4 M45.7,149.3l0.4,0.4V149 M46.1,153.5v-0.9l-3.7-3.7h-0.8l-0.1,0.1v0.7l3.7,3.8"/>
	<path class="st4" d="M41.5,153.5L41.5,153.5l0.5-0.4l-0.5-0.5 M46.1,148.9h-0.9l0.5,0.4L46.1,148.9 M41.5,149l0.1-0.1h-0.1
		 M42.4,158.1l-0.4-0.4l-0.4,0.4 M45.7,154l0.4,0.3v-0.7 M41.5,153.6v0.7l3.7,3.8h0.9v-0.9l-3.7-3.7h-0.8"/>
	<path class="st4" d="M41.5,158.1L41.5,158.1l0.5-0.4l-0.5-0.5 M46.1,153.5h-0.9l0.5,0.5l0.4-0.4 M41.6,153.5L41.6,153.5l-0.1,0.1
		 M41.6,162.7h0.8l-0.5-0.5l0.1,0.1 M45.7,158.6l0.4,0.4v-0.8"/>
	<path class="st4" d="M46.1,162.7v-0.8l-3.7-3.8h-0.8l-0.1,0.1v0.8l3.7,3.7 M41.5,162.7L41.5,162.7l0.5-0.4l-0.1-0.1l-0.4-0.3
		 M46.1,158.1h-0.9l0.4,0.4l0.1,0.1l0.4-0.4"/>
	<path class="st4" d="M41.5,158.2l0.1-0.1h-0.1 M42.4,167.3L42,167l-0.4,0.3 M45.7,163.2l0.4,0.4v-0.8 M41.5,162.8v0.8l3.7,3.7h0.9
		v-0.8l-3.7-3.8h-0.8"/>
	<path class="st4" d="M41.5,167.3L41.5,167.3L42,167l-0.5-0.5 M46.1,162.7h-0.9l0.5,0.5l0.4-0.4 M41.6,162.7L41.6,162.7l-0.1,0.1
		 M42.4,171.9l-0.4-0.3l-0.4,0.3 M45.7,167.8l0.4,0.4v-0.8"/>
	<path class="st4" d="M41.5,167.4v0.8l3.7,3.7h0.9v-0.8l-3.7-3.8h-0.8 M41.5,171.9L41.5,171.9l0.5-0.3l-0.1-0.1l-0.4-0.4
		 M46.1,167.3h-0.9l0.4,0.4l0.1,0.1l0.4-0.4"/>
	<path class="st4" d="M41.6,167.3L41.6,167.3l-0.1,0.1 M41.6,176.6h0.8l-0.5-0.5l0.1,0.1 M45.7,172.4l0.4,0.4v-0.7 M41.5,172.1v0.7
		l3.7,3.8h0.9v-0.9l-3.7-3.8h-0.8"/>
	<path class="st4" d="M41.5,176.6L41.5,176.6l0.5-0.4l-0.1-0.1l-0.4-0.4 M46.1,171.9h-0.9l0.5,0.5l0.4-0.3 M41.6,171.9L41.6,171.9
		l-0.1,0.2 M42.4,181.2l-0.4-0.4l-0.4,0.4 M45.7,177.1l0.4,0.3v-0.7 M41.5,176.7v0.7l3.7,3.8h0.9v-0.9l-3.7-3.7h-0.8"/>
	<path class="st4" d="M41.5,181.2L41.5,181.2l0.5-0.4l-0.5-0.5 M46.1,176.6h-0.9l0.5,0.5l0.4-0.4 M41.6,176.6L41.6,176.6l-0.1,0.1
		 M42.4,185.8l-0.4-0.4l-0.4,0.4 M45.7,181.7l0.4,0.3v-0.7 M41.5,181.3v0.7l3.7,3.8h0.9v-0.9l-3.7-3.7h-0.8"/>
	<path class="st4" d="M41.5,185.8L41.5,185.8l0.5-0.4l-0.5-0.5 M46.1,181.2h-0.9l0.5,0.5l0.4-0.4 M41.6,181.2L41.6,181.2l-0.1,0.1
		 M41.9,189.9L42,190 M42.4,190.4L42,190l-0.4,0.4 M45.7,186.3l0.4,0.4v-0.8"/>
	<path class="st4" d="M41.5,185.9v0.8l3.7,3.7h0.9v-0.8l-3.7-3.8h-0.8 M41.5,190.4L41.5,190.4L42,190l-0.1-0.1l-0.4-0.3 M46.1,185.8
		h-0.9l0.5,0.5l0.4-0.4"/>
	<path class="st4" d="M41.6,185.8L41.6,185.8l-0.1,0.1 M45.7,190.9l0.4,0.4v-0.8 M41.5,190.5v0.8l1.9,1.9l1.1-0.6l-2.1-2.2h-0.8
		 M41.6,194.3l-0.1-0.1L41.6,194.3 M46.1,190.4h-0.9l0.5,0.5l0.4-0.4 M41.6,190.4L41.6,190.4l-0.1,0.1 M37,139.6h0.7l-0.4-0.5
		l0.1,0.2 M41.5,139.6v-0.8l-1.5-1.6l-1.1,0.7l1.7,1.7"/>
	<path class="st4" d="M36.9,139v0.6H37l0.4-0.3l-0.1-0.2l-0.3-0.2 M37.7,144.2l-0.3-0.3l-0.4,0.3 M41.1,140.1l0.4,0.4v-0.8"/>
	<path class="st4" d="M36.9,139.7v0.8l3.7,3.7h0.9v-0.8l-3.8-3.8H37 M36.9,144.2L36.9,144.2l0.5-0.3l-0.1-0.1l-0.4-0.4 M41.5,139.6
		h-0.9L41,140l0.1,0.1l0.4-0.4"/>
	<path class="st4" d="M37,139.6L37,139.6l-0.1,0.1 M37,148.9h0.7l-0.4-0.5l0.1,0.1 M41.1,144.7l-0.1-0.1l0.5,0.5v-0.7 M41.5,148.9
		V148l-3.8-3.8H37l-0.1,0.2v0.7l3.7,3.8"/>
	<path class="st4" d="M36.9,148.9L36.9,148.9l0.5-0.4l-0.1-0.1l-0.4-0.4 M41.5,144.4v-0.2h-0.9l0.4,0.4l0.1,0.1 M36.9,144.4l0.1-0.2
		h-0.1 M37.3,153l0.1,0.1 M37.7,153.5l-0.3-0.4l-0.4,0.4 M41.1,149.3l-0.1-0.1l0.5,0.5V149 M36.9,149v0.7l3.7,3.8h0.9v-0.9l-3.8-3.7
		L36.9,149 M36.9,153.5L36.9,153.5l0.5-0.4l-0.1-0.1l-0.4-0.4"/>
	<path class="st4" d="M41.5,149v-0.1h-0.9l0.4,0.3l0.1,0.1 M37,148.9L37,148.9l-0.1,0.1 M37.7,158.1l-0.3-0.4l-0.4,0.4 M41,153.9
		l0.1,0.1L41,153.9 M41.1,154l0.4,0.3v-0.7 M41.5,158.1v-0.9l-3.8-3.7H37l-0.1,0.1v0.7l3.7,3.8 M36.9,158.1L36.9,158.1l0.5-0.4
		l-0.1-0.1l-0.4-0.4 M41.5,153.5h-0.9l0.4,0.4l0.1,0.1l0.4-0.4"/>
	<path class="st4" d="M36.9,153.6l0.1-0.1h-0.1 M37,162.7h0.7l-0.4-0.5l0.1,0.1 M41.1,158.6l-0.1-0.1l0.5,0.5v-0.8 M36.9,158.2v0.8
		l3.7,3.7h0.9v-0.8l-3.8-3.8H37"/>
	<path class="st4" d="M36.9,162.7L36.9,162.7l0.5-0.4l-0.1-0.1l-0.4-0.3 M41.5,158.2v-0.1h-0.9l0.4,0.4l0.1,0.1 M37,158.1L37,158.1
		l-0.1,0.1 M37.7,167.3l-0.3-0.3l-0.4,0.3 M41.1,163.2l0.4,0.4v-0.8 M36.9,162.8v0.8l3.7,3.7h0.9v-0.8l-3.8-3.8H37 M36.9,167.3
		L36.9,167.3l0.5-0.3l-0.1-0.2l-0.4-0.3 M41.5,162.7h-0.9l0.4,0.4l0.1,0.1l0.4-0.4"/>
	<path class="st4" d="M37,162.7L37,162.7l-0.1,0.1 M37,171.9h0.7l-0.4-0.4l0.1,0.1 M41.1,167.8l-0.1-0.1l0.5,0.5v-0.8 M36.9,167.4
		v0.8l3.7,3.7h0.9v-0.8l-3.8-3.8H37"/>
	<path class="st4" d="M36.9,171.9L36.9,171.9l0.5-0.3l-0.1-0.1l-0.4-0.4 M41.5,167.4v-0.1h-0.9l0.4,0.4l0.1,0.1 M37,167.3L37,167.3
		l-0.1,0.1 M37,176.6h0.7l-0.4-0.5l0.1,0.1 M41.1,172.4l-0.1-0.1l0.5,0.5v-0.7"/>
	<path class="st4" d="M36.9,172.1v0.7l3.7,3.8h0.9v-0.9l-3.8-3.8H37 M36.9,176.6L36.9,176.6l0.5-0.4l-0.1-0.1l-0.4-0.4 M41.5,172.1
		v-0.2h-0.9l0.4,0.4l0.1,0.1"/>
	<path class="st4" d="M37,171.9L37,171.9l-0.1,0.2 M37.7,181.2l-0.3-0.4l-0.4,0.4 M41.1,177.1V177l0.4,0.4v-0.7 M36.9,176.7v0.7
		l3.7,3.8h0.9v-0.9l-3.8-3.7L36.9,176.7 M36.9,181.2L36.9,181.2l0.5-0.4l-0.5-0.5"/>
	<path class="st4" d="M41.5,176.7v-0.1h-0.9l0.5,0.4v0.1 M37,176.6L37,176.6l-0.1,0.1 M37.7,185.8l-0.3-0.4l-0.4,0.4 M41.1,181.7
		l-0.1-0.1l0.5,0.4v-0.7 M36.9,181.3v0.7l3.7,3.8h0.9v-0.9l-3.8-3.7L36.9,181.3 M36.9,185.8L36.9,185.8l0.5-0.4l-0.5-0.5"/>
	<path class="st4" d="M41.5,181.3v-0.1h-0.9l0.4,0.4l0.1,0.1 M37,181.2L37,181.2l-0.1,0.1 M37,190.4h0.7l-0.4-0.5l0.1,0.1
		 M41.1,186.3l-0.1-0.1l0.5,0.5v-0.8 M36.9,185.9v0.8l3.7,3.7h0.9v-0.8l-3.8-3.8H37"/>
	<path class="st4" d="M36.9,190.4L36.9,190.4l0.5-0.4l-0.1-0.1l-0.4-0.3 M41.5,185.9v-0.1h-0.9l0.4,0.4l0.1,0.1 M37,185.8L37,185.8
		l-0.1,0.1 M37,195h0.7l-0.4-0.5l0.1,0.2 M41,190.8L41,190.8L41,190.8 M41.1,190.9l0.4,0.4v-0.8 M36.9,190.5v0.8l3.6,3.6l1-0.5v-0.2
		l-3.8-3.8L36.9,190.5"/>
	<path class="st4" d="M36.9,195L36.9,195l0.5-0.3l-0.1-0.2l-0.4-0.3 M41.5,190.4h-0.9l0.4,0.4h0.1v0.1l0.4-0.4 M37,190.4L37,190.4
		l-0.1,0.1 M37.7,195H37l-0.1,0.1v0.8l0.7,0.7l1.1-0.6"/>
	<path class="st4" d="M36.9,195.1L37,195h-0.1 M36.9,139.6V139l-1,0.6H36 M33.1,144.2l-0.4-0.3l-0.3,0.3 M36.5,140.1l0.4,0.4v-0.8
		 M36.9,144.2v-0.8l-2.8-2.8l-1.1,0.6l3,3 M32.3,144.2L32.3,144.2l0.4-0.3l-0.4-0.5"/>
	<path class="st4" d="M36.9,139.6H36l0.5,0.5l0.4-0.4 M33.1,148.9l-0.4-0.4l-0.3,0.4 M36.5,144.7l0.4,0.4v-0.7 M32.3,144.4v0.7
		l3.7,3.8h0.9V148l-3.8-3.8h-0.7 M32.3,148.9L32.3,148.9l0.4-0.4l-0.4-0.5 M36.9,144.2H36l0.4,0.4l0.1,0.1l0.4-0.3 M32.4,144.2
		L32.4,144.2l-0.1,0.2 M33.1,153.5l-0.4-0.4l-0.3,0.4 M36.5,149.3l0.4,0.4V149"/>
	<path class="st4" d="M36.9,153.5v-0.9l-3.8-3.7h-0.7l-0.1,0.1v0.7l3.7,3.8 M32.3,153.5L32.3,153.5l0.4-0.4l-0.4-0.5 M36.9,148.9H36
		l0.5,0.4L36.9,148.9"/>
	<path class="st4" d="M32.3,149l0.1-0.1h-0.1 M33.1,158.1l-0.4-0.4l-0.3,0.4 M36.5,154l0.4,0.3v-0.7 M32.3,153.6v0.7l3.7,3.8h0.9
		v-0.9l-3.8-3.7h-0.7 M32.3,158.1L32.3,158.1l0.4-0.4l-0.4-0.5 M36.9,153.5H36l0.5,0.5l0.4-0.4"/>
	<path class="st4" d="M32.4,153.5L32.4,153.5l-0.1,0.1 M33.1,162.7l-0.4-0.4l-0.3,0.4 M36.5,158.6l0.4,0.4v-0.8 M32.3,158.2v0.8
		l3.7,3.7h0.9v-0.8l-3.8-3.8h-0.7 M32.3,162.7L32.3,162.7l0.4-0.4l-0.1-0.1l-0.3-0.3 M36.9,158.1H36l0.4,0.4l0.1,0.1l0.4-0.4"/>
	<path class="st4" d="M32.4,158.1L32.4,158.1l-0.1,0.1 M33.1,167.3l-0.4-0.3l-0.3,0.3 M36.5,163.2l0.4,0.4v-0.8 M32.3,162.8v0.8
		l3.7,3.7h0.9v-0.8l-3.8-3.8h-0.7 M32.3,167.3L32.3,167.3l0.4-0.3l-0.4-0.5 M36.9,162.7H36l0.5,0.5l0.4-0.4 M32.4,162.7L32.4,162.7
		l-0.1,0.1 M33.1,171.9l-0.4-0.3l-0.3,0.3 M36.5,167.8l0.4,0.4v-0.8"/>
	<path class="st4" d="M32.3,167.4v0.8l3.7,3.7h0.9v-0.8l-3.8-3.8h-0.7 M32.3,171.9L32.3,171.9l0.4-0.3l-0.4-0.5 M36.9,167.3H36
		l0.4,0.4l0.1,0.1l0.4-0.4"/>
	<path class="st4" d="M32.4,167.3L32.4,167.3l-0.1,0.1 M32.4,176.6h0.7l-0.4-0.5v0.1 M36.5,172.4l0.4,0.4v-0.7 M32.3,172.1v0.7
		l3.7,3.8h0.9v-0.9l-3.8-3.8h-0.7"/>
	<path class="st4" d="M32.3,176.6L32.3,176.6l0.4-0.4v-0.1l-0.4-0.4 M36.9,171.9H36l0.5,0.5l0.4-0.3 M32.4,171.9L32.4,171.9
		l-0.1,0.2 M33.1,181.2l-0.4-0.4l-0.3,0.4 M36.5,177.1l0.4,0.3v-0.7 M32.3,176.7v0.7l3.7,3.8h0.9v-0.9l-3.8-3.7h-0.7 M32.3,181.2
		L32.3,181.2l0.4-0.4l-0.4-0.5 M36.9,176.6H36l0.5,0.5l0.4-0.4"/>
	<path class="st4" d="M32.4,176.6L32.4,176.6l-0.1,0.1 M33.1,185.8l-0.4-0.4l-0.3,0.4 M36.5,181.7l0.4,0.3v-0.7 M32.3,181.3v0.7
		l3.7,3.8h0.9v-0.9l-3.8-3.7h-0.7 M32.3,185.8L32.3,185.8l0.4-0.4l-0.4-0.5 M36.9,181.2H36l0.5,0.5l0.4-0.4 M32.4,181.2L32.4,181.2
		l-0.1,0.1 M33.1,190.4l-0.4-0.4l-0.3,0.4 M32.6,189.9l0.1,0.1 M36.5,186.3l0.4,0.4v-0.8"/>
	<path class="st4" d="M32.3,185.9v0.8l3.7,3.7h0.9v-0.8l-3.8-3.8h-0.7 M32.3,190.4L32.3,190.4l0.4-0.4l-0.1-0.1l-0.3-0.3
		 M36.9,185.8H36l0.5,0.5l0.4-0.4"/>
	<path class="st4" d="M32.4,185.8L32.4,185.8l-0.1,0.1 M33.1,195l-0.4-0.3l-0.3,0.3 M36.5,190.9l0.4,0.4v-0.8 M36.9,195v-0.8
		l-3.8-3.8h-0.7l-0.1,0.1v0.8L36,195 M32.3,194.2v0.8h0.1l0.3-0.3"/>
	<path class="st4" d="M36.9,190.4H36l0.5,0.5l0.4-0.4 M32.3,190.5l0.1-0.1h-0.1 M32.4,199.6l0.4-0.2l-0.1-0.2v0.1 M36.5,195.5
		l-0.1-0.1l0.5,0.5v-0.8 M32.3,195.1v0.8l2.4,2.4l1.1-0.6l-2.7-2.7h-0.7"/>
	<path class="st4" d="M32.3,199.7l0.1-0.1l0.3-0.3v-0.1l-0.4-0.4 M36.9,195.1V195H36l0.4,0.4l0.1,0.1 M32.4,195L32.4,195l-0.1,0.1
		 M28.2,144l-0.4,0.2h0.7 M32.3,144.2v-0.8l-1.1-1.1l-1.1,0.6l1.3,1.3 M27.7,148.9h0.8l-0.5-0.5l0.1,0.1 M31.9,144.7l-0.1-0.1
		l0.5,0.5v-0.7"/>
	<path class="st4" d="M32.3,148.9V148l-3.8-3.8h-0.7l-0.1,0.1l-0.1,0.1v0.7l3.8,3.8 M27.6,148.9h0.1l0.4-0.4l-0.1-0.1l-0.4-0.4
		 M32.3,144.4v-0.2h-0.9l0.4,0.4l0.1,0.1"/>
	<path class="st4" d="M27.7,144.3h-0.1v0.1 M28,153l0.1,0.1 M28.5,153.5l-0.4-0.4l-0.4,0.4 M31.9,149.3l-0.1-0.1l0.5,0.5V149
		 M27.6,149v0.7l3.8,3.8h0.9v-0.9l-3.8-3.7h-0.8"/>
	<path class="st4" d="M27.6,153.5h0.1l0.4-0.4L28,153l-0.4-0.4 M32.3,149v-0.1h-0.9l0.4,0.3l0.1,0.1 M27.7,148.9h-0.1v0.1
		 M28.5,158.1l-0.4-0.4l-0.4,0.4 M31.8,153.9l0.1,0.1L31.8,153.9 M31.9,154l0.4,0.3v-0.7 M27.6,153.6v0.7l3.8,3.8h0.9v-0.9l-3.8-3.7
		h-0.8"/>
	<path class="st4" d="M27.6,158.1h0.1l0.4-0.4l-0.1-0.1l-0.4-0.4 M32.3,153.5h-0.9l0.4,0.4l0.1,0.1l0.4-0.4 M27.7,153.5h-0.1v0.1
		 M27.7,162.7h0.8l-0.5-0.5l0.1,0.1 M31.9,158.6l-0.1-0.1l0.5,0.5v-0.8"/>
	<path class="st4" d="M27.6,158.2v0.8l3.8,3.7h0.9v-0.8l-3.8-3.8h-0.8 M27.6,162.7h0.1l0.4-0.4l-0.1-0.1l-0.4-0.3 M32.3,158.2v-0.1
		h-0.9l0.4,0.4l0.1,0.1"/>
	<path class="st4" d="M27.7,158.1h-0.1v0.1 M28.5,167.3l-0.4-0.3l-0.4,0.3 M31.9,163.2l0.4,0.4v-0.8 M27.6,162.8v0.8l3.8,3.7h0.9
		v-0.8l-3.8-3.8h-0.8"/>
	<path class="st4" d="M27.6,167.3h0.1l0.4-0.3l-0.1-0.2l-0.4-0.3 M32.3,162.7h-0.9l0.4,0.4l0.1,0.1l0.4-0.4 M27.7,162.7h-0.1v0.1
		 M27.7,171.9h0.8l-0.5-0.4l0.1,0.1 M31.9,167.8l-0.1-0.1l0.5,0.5v-0.8"/>
	<path class="st4" d="M27.6,167.4v0.8l3.8,3.7h0.9v-0.8l-3.8-3.8h-0.8 M27.6,171.9h0.1l0.4-0.3l-0.1-0.1l-0.4-0.4 M32.3,167.4v-0.1
		h-0.9l0.4,0.4l0.1,0.1"/>
	<path class="st4" d="M27.7,167.3h-0.1v0.1 M27.7,176.6h0.8l-0.5-0.5l0.1,0.1 M31.9,172.4l-0.1-0.1l0.5,0.5v-0.7 M27.6,172.1v0.7
		l3.8,3.8h0.9v-0.9l-3.8-3.8h-0.8"/>
	<path class="st4" d="M27.6,176.6h0.1l0.4-0.4l-0.1-0.1l-0.4-0.4 M32.3,172.1v-0.2h-0.9l0.4,0.4l0.1,0.1 M27.7,171.9h-0.1v0.2
		 M28.5,181.2l-0.4-0.4l-0.4,0.4 M31.9,177.1l-0.1-0.1l0.5,0.4v-0.7 M27.6,176.7v0.7l3.8,3.8h0.9v-0.9l-3.8-3.7h-0.8"/>
	<path class="st4" d="M27.6,181.2h0.1l0.4-0.4l-0.5-0.5 M32.3,176.7v-0.1h-0.9l0.4,0.4l0.1,0.1 M27.7,176.6h-0.1v0.1 M28.5,185.8
		l-0.4-0.4l-0.4,0.4 M31.9,181.7l-0.1-0.1l0.5,0.4v-0.7 M27.6,181.3v0.7l3.8,3.8h0.9v-0.9l-3.8-3.7h-0.8"/>
	<path class="st4" d="M27.6,185.8h0.1l0.4-0.4l-0.5-0.5 M32.3,181.3v-0.1h-0.9l0.4,0.4l0.1,0.1 M27.7,181.2h-0.1v0.1 M27.7,190.4
		h0.8l-0.5-0.5l0.1,0.1 M31.9,186.3l-0.1-0.1l0.5,0.5v-0.8"/>
	<path class="st4" d="M32.3,190.4v-0.8l-3.8-3.8h-0.8l-0.1,0.1v0.8l3.8,3.7 M27.6,190.4h0.1l0.4-0.4l-0.1-0.1l-0.4-0.3 M32.3,185.9
		v-0.1h-0.9l0.4,0.4l0.1,0.1"/>
	<path class="st4" d="M27.6,185.9l0.1-0.1h-0.1 M27.7,195h0.8l-0.5-0.5l0.1,0.2 M31.9,190.9l0.4,0.4v-0.8 M32.3,195v-0.8l-3.8-3.8
		h-0.8l-0.1,0.1v0.8l3.8,3.7"/>
	<path class="st4" d="M27.6,195h0.1l0.4-0.3l-0.1-0.2l-0.4-0.3 M32.3,190.4h-0.9l0.4,0.4l0.1,0.1l0.4-0.4 M27.6,190.5l0.1-0.1h-0.1
		 M27.7,199.7h0.8l-0.5-0.5l0.1,0.1 M31.9,195.5l-0.1-0.1l0.5,0.5v-0.8 M27.6,195.1v0.8l3.8,3.8h0.9v-0.9l-3.8-3.8h-0.8"/>
	<path class="st4" d="M27.6,199.7h0.1l0.4-0.4l-0.1-0.1l-0.4-0.4 M32.3,195.1V195h-0.9l0.4,0.4l0.1,0.1 M27.6,195v0.1l0.1-0.1
		 M28.5,199.7h-0.8l-0.1,0.1v0.7l1.2,1.2l1.1-0.6 M31.4,199.7l0.3,0.3l0.6-0.3"/>
	<path class="st4" d="M27.6,199.8l0.1-0.1h-0.1 M27.3,144.7l0.3,0.4v-0.7 M27.6,148.9V148l-2.3-2.3l-0.2,0.1v1.4l1.7,1.7"/>
	<path class="st4" d="M27.6,144.3l-0.4,0.3l0.1,0.1l0.3-0.3 M27.3,149.3l0.3,0.4V149 M26.8,153.5h0.8v-0.9l-2.5-2.5v1.7 M27.6,148.9
		h-0.8l0.5,0.4L27.6,148.9 M27.3,154l0.3,0.3v-0.7 M26.8,158.1h0.8v-0.9l-2.5-2.5v1.7"/>
	<path class="st4" d="M27.6,153.5h-0.8l0.5,0.5l0.3-0.4 M27.3,158.6l0.3,0.4v-0.8 M27.6,162.7v-0.8l-2.5-2.6v1.8l1.7,1.6"/>
	<path class="st4" d="M27.6,158.1h-0.8l0.4,0.4l0.1,0.1l0.3-0.4 M27.3,163.2l0.3,0.4v-0.8 M26.8,167.3h0.8v-0.8l-2.5-2.5v1.7"/>
	<path class="st4" d="M27.6,162.7h-0.8l0.5,0.5l0.3-0.4 M27.3,167.8l0.3,0.4v-0.8 M27.6,171.9v-0.8l-2.5-2.5v1.7l1.7,1.6"/>
	<path class="st4" d="M27.6,167.3h-0.8l0.4,0.4l0.1,0.1l0.3-0.4 M27.3,172.4l0.3,0.4v-0.7 M26.8,176.6h0.8v-0.9l-2.5-2.5v1.7
		 M27.6,171.9h-0.8l0.5,0.5l0.3-0.3 M27.3,177.1l0.3,0.3v-0.7 M26.8,181.2h0.8v-0.9l-2.5-2.5v1.7"/>
	<path class="st4" d="M27.6,176.6h-0.8l0.5,0.5l0.3-0.4 M27.3,181.7l0.3,0.3v-0.7 M27.6,185.8v-0.9l-2.5-2.5v1.7l1.7,1.7
		 M27.6,181.2h-0.8l0.5,0.5l0.3-0.4 M27.3,186.3l0.3,0.4v-0.8 M27.6,190.4v-0.8l-2.5-2.6v1.8l1.7,1.6"/>
	<path class="st4" d="M27.6,185.8h-0.8l0.5,0.5l0.3-0.4 M27.3,190.9l0.3,0.4v-0.8 M27.6,195v-0.8l-2.5-2.5v1.7l1.7,1.6"/>
	<path class="st4" d="M27.6,190.4h-0.8l0.5,0.5l0.3-0.4 M27.6,195.9v-0.8l-0.3,0.4l-0.1-0.1 M27.6,199.7v-0.9l-2.5-2.5v1.7l1.7,1.7"
		/>
	<path class="st4" d="M27.6,195.1V195h-0.8l0.4,0.4l0.1,0.1 M27.3,200.1l-0.1-0.1l0.4,0.5v-0.7 M27,202.7l-1.9-1.8v1.7l0.8,0.8"/>
	<path class="st4" d="M27.6,199.8v-0.1h-0.8l0.4,0.3l0.1,0.1"/>
</g>
<g class="st1">
	<path class="st4" d="M72.7,33c-0.2,0-0.4,0.2-0.4,0.4h0.8C73.1,33.2,72.9,33,72.7,33z M72.7,46.9c-0.2,0-0.4,0.2-0.4,0.4h0.8
		C73.1,47.1,72.9,46.9,72.7,46.9z M69.6,40.4c0-0.2-0.2-0.4-0.4-0.4v0.8C69.4,40.8,69.6,40.6,69.6,40.4z M72.7,33.8
		c0.2,0,0.4-0.2,0.4-0.4h-0.8C72.2,33.7,72.4,33.8,72.7,33.8z M69.2,53.8v0.8c0.2,0,0.4-0.2,0.4-0.4S69.4,53.8,69.2,53.8z
		 M72.7,47.7c0.2,0,0.4-0.2,0.4-0.4h-0.8C72.2,47.5,72.4,47.7,72.7,47.7z M65.3,47.3h0.8c0-0.2-0.2-0.4-0.4-0.4S65.3,47.1,65.3,47.3
		z M58.4,47.3h0.8c0-0.2-0.2-0.4-0.4-0.4S58.4,47.1,58.4,47.3z"/>
	<path class="st4" d="M68.8,40.4c0,0.2,0.2,0.4,0.4,0.4V40C69,40,68.8,40.1,68.8,40.4z"/>
	<circle class="st4" cx="62.3" cy="40.4" r="0.4"/>
	<path class="st4" d="M65.7,60.7c-0.2,0-0.4,0.2-0.4,0.4h0.8C66.1,60.9,66,60.7,65.7,60.7z M58.8,60.7c-0.2,0-0.4,0.2-0.4,0.4h0.8
		C59.2,60.9,59,60.7,58.8,60.7z M68.8,54.2c0,0.2,0.2,0.4,0.4,0.4v-0.8C69,53.8,68.8,54,68.8,54.2z"/>
	<circle class="st4" cx="62.3" cy="54.2" r="0.4"/>
	<path class="st4" d="M55.8,54.2c0-0.2-0.2-0.4-0.4-0.4v0.8C55.6,54.6,55.8,54.4,55.8,54.2z M65.7,47.7c0.2,0,0.4-0.2,0.4-0.4h-0.8
		C65.3,47.5,65.5,47.7,65.7,47.7z M58.8,47.7c0.2,0,0.4-0.2,0.4-0.4h-0.8C58.4,47.5,58.6,47.7,58.8,47.7z M55.8,68.1
		c0-0.2-0.2-0.4-0.4-0.4v0.8C55.6,68.5,55.8,68.3,55.8,68.1z M65.7,61.6c0.2,0,0.4-0.2,0.4-0.4h-0.8C65.3,61.4,65.5,61.6,65.7,61.6z
		 M58.8,61.6c0.2,0,0.4-0.2,0.4-0.4h-0.8C58.4,61.4,58.6,61.6,58.8,61.6z M51.5,47.3h0.8c0-0.2-0.2-0.4-0.4-0.4S51.5,47.1,51.5,47.3
		z M51.9,60.7c-0.2,0-0.4,0.2-0.4,0.4h0.8C52.3,60.9,52.1,60.7,51.9,60.7z M55.3,54.6v-0.8c-0.2,0-0.4,0.2-0.4,0.4
		S55.1,54.6,55.3,54.6z M51.9,47.7c0.2,0,0.4-0.2,0.4-0.4h-0.8C51.5,47.5,51.7,47.7,51.9,47.7z M55.3,68.5v-0.8
		c-0.2,0-0.4,0.2-0.4,0.4S55.1,68.5,55.3,68.5z M51.9,61.6c0.2,0,0.4-0.2,0.4-0.4h-0.8C51.5,61.4,51.7,61.6,51.9,61.6z"/>
</g>
<g class="st1">
	<path class="st3" d="M95.6,164l1.3-1.3l1.3,1.3l-1.3,1.3L95.6,164z M112.1,170.8l-1.4-1.4l-1.3,1.4l1.3,1.3 M100.2,170.8l1.3,1.3
		l1.3-1.3l-1.3-1.4L100.2,170.8 M104.8,177.5l1.3-1.3l1.3,1.3l-1.3,1.3L104.8,177.5z M114,177.6l1.3-1.3l1.3,1.3l-1.3,1.3L114,177.6
		z M102.8,184.3l-1.3-1.3l-1.3,1.3l1.3,1.3 M95.6,177.5l1.3-1.3l1.3,1.3l-1.3,1.3L95.6,177.5z M86.3,177.5l1.3-1.3l1.3,1.3l-1.3,1.3
		L86.3,177.5z M93.6,170.8l-1.3-1.4l-1.3,1.4l1.3,1.3L93.6,170.8"/>
	<path class="st4" d="M123.3,176.2l1.7-1l-0.4-0.4 M121.2,172.3l-0.9-0.6l-0.3,0.4v1.4 M118.6,170.8l-0.8-0.5l-0.5,0.5 M110.7,169.4
		l1.4,1.4h1.4l-2.8-2.7V169.4 M110.7,183l0.3,0.2l0.9-0.5l-1.2-1.1L110.7,183 M118.1,177.5l-2.7-2.7l-2.7,2.7l2.7,2.7L118.1,177.5z
		 M115.4,176.2l1.3,1.3l-1.3,1.3l-1.3-1.3L115.4,176.2z"/>
	<path class="st4" d="M117.3,170.8l2.7,2.7v-1.4l-1.3-1.3H117.3 M112.1,170.8l-1.4,1.3v1.4l2.8-2.7H112.1 M110.7,169.4v-1.3
		l-2.7,2.7h1.4 M101.5,168.1v1.3l1.3,1.4h1.4L101.5,168.1 M106.1,166.7l2-2l-0.9-0.5l-1.1,1.1l-1.3-1.3l0.8-0.8l-0.9-0.5l-1.3,1.3
		 M109.8,184l0.9-1v-1.4l-2.7,2.7h1.2 M101.5,183l1.3,1.3h1.4l-2.7-2.7L101.5,183 M106.1,174.8l-2.7,2.7l2.7,2.7l2.7-2.7
		L106.1,174.8z M104.8,177.5l1.3-1.3l1.3,1.3l-1.3,1.3L104.8,177.5z"/>
	<path class="st4" d="M110.7,172.1l-1.3-1.3H108l2.7,2.7 M102.8,170.8l-1.3,1.3v1.4l2.7-2.7H102.8 M108,184.3l0.4,0.4l0.8-0.4
		 M101.5,185.6v1.4l2.7-2.7h-1.4 M101.5,169.4v-1.3l-2.7,2.7h1.4 M93.6,170.8H95l-2.7-2.7v1.3 M96.9,166.7l2.7-2.7l-2-2l-3.3,1.9
		l-0.1,0.1C94.2,164,96.9,166.7,96.9,166.7z M98.2,164l-1.3,1.3l-1.3-1.3l1.3-1.3L98.2,164z M101.5,183v-1.4l-2.7,2.7h1.4
		 M92.3,181.6v1.4l1.3,1.3H95 M99.6,177.5l-2.7-2.7l-2.7,2.7l2.7,2.7L99.6,177.5z M96.9,176.2l1.3,1.3l-1.3,1.3l-1.3-1.3L96.9,176.2
		z M100.2,170.8h-1.4l2.7,2.7v-1.4 M93.6,170.8l-1.3,1.3v1.4l2.7-2.7H93.6 M101.5,185.6l-1.3-1.3h-1.4l2.7,2.7 M93.6,184.3L93,185
		l0.8,0.5l1.2-1.2 M92.3,169.4v-1.3l-2.7,2.7H91 M84.5,169.5l-0.9,0.5l0.8,0.8h1.4"/>
	<path class="st4" d="M90.4,183.5l0.9,0.5l1-1v-1.4 M85,177.5l2.7,2.7l2.7-2.7l-2.7-2.7L85,177.5z M87.7,178.9l-1.3-1.3l1.3-1.3
		l1.3,1.3L87.7,178.9z M92.3,172.1l-1.3-1.3h-1.4l2.7,2.7 M85.8,170.8h-1.4l-1.4,1.3v1.4 M78.4,174.8l-1.1,1.1l0.9,0.5l0.2-0.2
		l0.9,0.9l1.5,0.8l0.3-0.4"/>
	<path class="st4" d="M83,172.1l-1-1.1l-0.9,0.5l1.9,2"/>
</g>
<g class="st1">
	<circle class="st3" cx="10.4" cy="142.1" r="1.1"/>
	<circle class="st3" cx="21.3" cy="155.2" r="1.1"/>
	<circle class="st3" cx="6.1" cy="150.8" r="1.1"/>
	<circle class="st3" cx="14.7" cy="150.8" r="1.1"/>
	<circle class="st3" cx="21.3" cy="163.9" r="1.1"/>
	<circle class="st3" cx="23.4" cy="159.5" r="1.1"/>
	<circle class="st3" cx="1.7" cy="142.1" r="1.1"/>
	<circle class="st3" cx="16.9" cy="155.2" r="1.1"/>
	<circle class="st3" cx="3.9" cy="137.8" r="1.1"/>
	<circle class="st3" cx="19.1" cy="159.5" r="1.1"/>
	<circle class="st3" cx="3.9" cy="146.5" r="1.1"/>
	<circle class="st3" cx="10.4" cy="159.5" r="1.1"/>
	<circle class="st3" cx="8.2" cy="146.5" r="1.1"/>
	<circle class="st3" cx="8.2" cy="155.2" r="1.1"/>
	<circle class="st3" cx="3.9" cy="155.2" r="1.1"/>
	<circle class="st3" cx="16.9" cy="163.9" r="1.1"/>
	<circle class="st3" cx="19.1" cy="168.2" r="1.1"/>
	<circle class="st3" cx="10.4" cy="150.8" r="1.1"/>
	<circle class="st3" cx="12.6" cy="155.2" r="1.1"/>
	<circle class="st3" cx="23.4" cy="150.8" r="1.1"/>
	<circle class="st3" cx="19.1" cy="150.8" r="1.1"/>
	<circle class="st3" cx="8.2" cy="137.8" r="1.1"/>
	<circle class="st3" cx="6.1" cy="159.5" r="1.1"/>
	<circle class="st3" cx="14.7" cy="159.5" r="1.1"/>
	<circle class="st3" cx="14.7" cy="142.1" r="1.1"/>
	<circle class="st3" cx="21.3" cy="146.5" r="1.1"/>
	<circle class="st3" cx="12.6" cy="163.9" r="1.1"/>
	<circle class="st3" cx="12.6" cy="146.5" r="1.1"/>
	<circle class="st3" cx="16.9" cy="146.5" r="1.1"/>
	<circle class="st3" cx="6.1" cy="142.1" r="1.1"/>
	<circle class="st3" cx="1.7" cy="150.8" r="1.1"/>
	<circle class="st3" cx="1.7" cy="159.5" r="1.1"/>
	<circle class="st3" cx="23.4" cy="168.2" r="1.1"/>
	<path class="st4" d="M23.4,149.8c0.6,0,1.1,0.5,1.1,1.1h0.6v-0.1c0-0.9-0.8-1.6-1.7-1.6c-0.9,0-1.7,0.8-1.7,1.7h0.6
		C22.4,150.2,22.8,149.8,23.4,149.8L23.4,149.8z M25.1,148.1v-0.7c-0.3-0.2-0.6-0.5-0.6-0.9c0-0.3,0.2-0.6,0.4-0.8l-0.6-0.3
		c-0.3,0.3-0.4,0.7-0.4,1.1C23.9,147.3,24.4,147.9,25.1,148.1L25.1,148.1z M23,146.5c0-0.9-0.8-1.7-1.7-1.7v0.6
		c0.6,0,1.1,0.5,1.1,1.1s-0.5,1.1-1.1,1.1v0.6C22.2,148.2,23,147.4,23,146.5L23,146.5z M23.4,158.5c0.6,0,1.1,0.5,1.1,1.1h0.6v-0.1
		c0-0.9-0.8-1.6-1.7-1.6c-0.9,0-1.7,0.8-1.7,1.7h0.6C22.4,158.9,22.8,158.5,23.4,158.5L23.4,158.5z M25.1,156.8v-0.7
		c-0.3-0.2-0.6-0.5-0.6-0.9s0.2-0.8,0.6-0.9v-0.7c-0.7,0.2-1.2,0.9-1.2,1.6S24.4,156.6,25.1,156.8L25.1,156.8z M23,155.2
		c0-0.9-0.8-1.7-1.7-1.7v0.6c0.6,0,1.1,0.5,1.1,1.1s-0.5,1.1-1.1,1.1v0.6C22.2,156.9,23,156.1,23,155.2L23,155.2z"/>
	<path class="st4" d="M25.1,150.9l-0.6-0.1c0,0.6-0.5,1.1-1.1,1.1s-1.1-0.5-1.1-1.1h-0.6c0,0.9,0.8,1.7,1.7,1.7
		C24.3,152.5,25.1,151.8,25.1,150.9L25.1,150.9z M23.4,167.1c0.6,0,1.1,0.5,1.1,1.1h0.6v-0.1c0-0.9-0.8-1.6-1.7-1.6
		c-0.9,0-1.7,0.8-1.7,1.7h0.6C22.4,167.6,22.8,167.1,23.4,167.1L23.4,167.1z M25.1,165.5v-0.7c-0.3-0.2-0.6-0.5-0.6-0.9
		s0.2-0.8,0.6-0.9v-0.7c-0.7,0.2-1.2,0.9-1.2,1.6S24.4,165.3,25.1,165.5L25.1,165.5z M23,163.9c0-0.9-0.8-1.7-1.7-1.7v0.6
		c0.6,0,1.1,0.5,1.1,1.1s-0.5,1.1-1.1,1.1v0.6C22.2,165.6,23,164.8,23,163.9L23,163.9z M25.1,159.6l-0.6-0.1c0,0.6-0.5,1.1-1.1,1.1
		s-1.1-0.5-1.1-1.1h-0.6c0,0.9,0.8,1.7,1.7,1.7C24.3,161.2,25.1,160.5,25.1,159.6L25.1,159.6z M24.5,172.5c0-0.4,0.2-0.8,0.6-0.9
		v-0.7c-0.7,0.2-1.2,0.9-1.2,1.6s0.5,1.4,1.2,1.6v-0.7C24.8,173.3,24.5,173,24.5,172.5L24.5,172.5z M22.7,173.4
		c0.2-0.3,0.2-0.6,0.2-0.9c0-0.9-0.8-1.7-1.7-1.7v0.6c0.6,0,1.1,0.5,1.1,1.1c0,0.2-0.1,0.4-0.2,0.5L22.7,173.4L22.7,173.4z
		 M25.1,168.3l-0.6-0.1c0,0.6-0.5,1.1-1.1,1.1s-1.1-0.5-1.1-1.1h-0.6c0,0.9,0.8,1.7,1.7,1.7C24.3,169.9,25.1,169.2,25.1,168.3
		L25.1,168.3z M18.1,141.7l-0.6-0.3c-0.1,0.2-0.2,0.5-0.2,0.7H18C18,142,18.1,141.9,18.1,141.7z M14.7,141.1c0.6,0,1.1,0.5,1.1,1.1
		h0.6c0-0.9-0.8-1.7-1.7-1.7s-1.7,0.8-1.7,1.7h0.6C13.7,141.6,14.2,141.1,14.7,141.1z M13.6,139.1l-0.6-0.4c-0.1,0-0.3,0.1-0.4,0.1
		v0.6C13,139.5,13.3,139.4,13.6,139.1L13.6,139.1z M19.1,149.8c0.6,0,1.1,0.5,1.1,1.1h0.6c0-0.9-0.8-1.7-1.7-1.7s-1.7,0.8-1.7,1.7
		H18C18,150.2,18.5,149.8,19.1,149.8z M14.7,149.8c0.6,0,1.1,0.5,1.1,1.1h0.6c0-0.9-0.8-1.7-1.7-1.7S13,150,13,150.9h0.6
		C13.7,150.2,14.2,149.8,14.7,149.8z M20.2,146.5c0-0.6,0.5-1.1,1.1-1.1v-0.6c-0.9,0-1.7,0.8-1.7,1.7s0.8,1.7,1.7,1.7v-0.6
		C20.7,147.5,20.2,147.1,20.2,146.5L20.2,146.5z M16.9,148.2c0.9,0,1.7-0.8,1.7-1.7s-0.8-1.7-1.7-1.7c-0.9,0-1.7,0.8-1.7,1.7
		S16,148.2,16.9,148.2z M16.9,145.4c0.6,0,1.1,0.5,1.1,1.1s-0.5,1.1-1.1,1.1s-1.1-0.5-1.1-1.1C15.9,145.9,16.3,145.4,16.9,145.4z
		 M14.3,146.5c0-0.9-0.8-1.7-1.7-1.7v0.6c0.6,0,1.1,0.5,1.1,1.1s-0.5,1.1-1.1,1.1v0.6C13.5,148.2,14.3,147.4,14.3,146.5L14.3,146.5z
		 M20.5,143.1l-0.6-0.3c-0.2,0.2-0.5,0.4-0.8,0.4c-0.6,0-1.1-0.5-1.1-1.1h-0.6c0,0.9,0.8,1.7,1.7,1.7
		C19.7,143.8,20.2,143.5,20.5,143.1L20.5,143.1z"/>
	<path class="st4" d="M16.4,142.1h-0.6c0,0.6-0.5,1.1-1.1,1.1s-1.1-0.5-1.1-1.1H13c0,0.9,0.8,1.7,1.7,1.7S16.4,143.1,16.4,142.1z
		 M19.1,158.5c0.6,0,1.1,0.5,1.1,1.1h0.6c0-0.9-0.8-1.7-1.7-1.7s-1.7,0.8-1.7,1.7H18C18,158.9,18.5,158.5,19.1,158.5z M14.7,158.5
		c0.6,0,1.1,0.5,1.1,1.1h0.6c0-0.9-0.8-1.7-1.7-1.7s-1.7,0.8-1.7,1.7h0.6C13.7,158.9,14.2,158.5,14.7,158.5z M20.2,155.2
		c0-0.6,0.5-1.1,1.1-1.1v-0.6c-0.9,0-1.7,0.8-1.7,1.7s0.8,1.7,1.7,1.7v-0.6C20.7,156.2,20.2,155.8,20.2,155.2L20.2,155.2z
		 M16.9,156.9c0.9,0,1.7-0.8,1.7-1.7s-0.8-1.7-1.7-1.7c-0.9,0-1.7,0.8-1.7,1.7S16,156.9,16.9,156.9z M16.9,154.1
		c0.6,0,1.1,0.5,1.1,1.1s-0.5,1.1-1.1,1.1s-1.1-0.5-1.1-1.1C15.9,154.6,16.3,154.1,16.9,154.1z M14.3,155.2c0-0.9-0.8-1.7-1.7-1.7
		v0.6c0.6,0,1.1,0.5,1.1,1.1s-0.5,1.1-1.1,1.1v0.6C13.5,156.9,14.3,156.1,14.3,155.2L14.3,155.2z M20.8,150.8h-0.6
		c0,0.6-0.5,1.1-1.1,1.1s-1.1-0.5-1.1-1.1h-0.6c0,0.9,0.8,1.7,1.7,1.7S20.8,151.8,20.8,150.8z M16.4,150.8h-0.6
		c0,0.6-0.5,1.1-1.1,1.1s-1.1-0.5-1.1-1.1H13c0,0.9,0.8,1.7,1.7,1.7S16.4,151.8,16.4,150.8z M19.1,167.1c0.6,0,1.1,0.5,1.1,1.1h0.6
		c0-0.9-0.8-1.7-1.7-1.7s-1.7,0.8-1.7,1.7H18C18,167.6,18.5,167.1,19.1,167.1z M14.7,166.5c-0.8,0-1.5,0.6-1.7,1.4l0.6,0.3
		c0-0.6,0.5-1.1,1.1-1.1s1.1,0.5,1.1,1.1h0.6C16.4,167.3,15.7,166.5,14.7,166.5z M20.2,163.9c0-0.6,0.5-1.1,1.1-1.1v-0.6
		c-0.9,0-1.7,0.8-1.7,1.7s0.8,1.7,1.7,1.7V165C20.7,164.9,20.2,164.4,20.2,163.9L20.2,163.9z M16.9,165.6c0.9,0,1.7-0.8,1.7-1.7
		s-0.8-1.7-1.7-1.7c-0.9,0-1.7,0.8-1.7,1.7S16,165.6,16.9,165.6z M16.9,162.8c0.6,0,1.1,0.5,1.1,1.1s-0.5,1.1-1.1,1.1
		s-1.1-0.5-1.1-1.1C15.9,163.3,16.3,162.8,16.9,162.8z M14.3,163.9c0-0.9-0.8-1.7-1.7-1.7v0.6c0.6,0,1.1,0.5,1.1,1.1
		s-0.5,1.1-1.1,1.1v0.6C13.5,165.6,14.3,164.8,14.3,163.9L14.3,163.9z"/>
	<path class="st4" d="M20.8,159.5h-0.6c0,0.6-0.5,1.1-1.1,1.1s-1.1-0.5-1.1-1.1h-0.6c0,0.9,0.8,1.7,1.7,1.7S20.8,160.4,20.8,159.5z
		 M16.4,159.5h-0.6c0,0.6-0.5,1.1-1.1,1.1s-1.1-0.5-1.1-1.1H13c0,0.9,0.8,1.7,1.7,1.7S16.4,160.4,16.4,159.5z M19.8,171.7l0.6,0.3
		c0.2-0.3,0.5-0.6,0.9-0.6v-0.6C20.6,170.8,20.1,171.2,19.8,171.7L19.8,171.7z M20.8,168.2h-0.6c0,0.6-0.5,1.1-1.1,1.1
		s-1.1-0.5-1.1-1.1h-0.6c0,0.9,0.8,1.7,1.7,1.7S20.8,169.1,20.8,168.2z M16.4,168.2h-0.6c0,0.4-0.2,0.7-0.5,0.9l0.6,0.4
		C16.2,169.2,16.4,168.7,16.4,168.2L16.4,168.2z M8.7,142.1h0.6c0-0.6,0.5-1.1,1.1-1.1s1.1,0.5,1.1,1.1h0.6c0-0.9-0.8-1.7-1.7-1.7
		S8.7,141.2,8.7,142.1z M4.4,142.1H5c0-0.6,0.5-1.1,1.1-1.1s1.1,0.5,1.1,1.1h0.6c0-0.9-0.8-1.7-1.7-1.7S4.4,141.2,4.4,142.1z
		 M10.9,137.8c0,0.9,0.8,1.7,1.7,1.7v-0.6c-0.5,0-0.9-0.4-1-0.9l-0.6-0.4C10.9,137.7,10.9,137.7,10.9,137.8z M6.5,137.8
		c0,0.9,0.8,1.7,1.7,1.7s1.7-0.8,1.7-1.7c0-0.3-0.1-0.7-0.3-0.9l-1.3-0.7H8.2C7.3,136.1,6.5,136.9,6.5,137.8L6.5,137.8z M9.3,137.8
		c0,0.6-0.5,1.1-1.1,1.1s-1.1-0.5-1.1-1.1s0.5-1.1,1.1-1.1S9.3,137.2,9.3,137.8z M4.9,137.8c0,0.6-0.5,1.1-1.1,1.1v0.6
		c0.9,0,1.7-0.8,1.7-1.7s-0.8-1.7-1.7-1.7v0.6C4.5,136.7,4.9,137.2,4.9,137.8L4.9,137.8z M6.1,135.2c0.2,0,0.3,0,0.5-0.1l-2.1-1.2
		C4.6,134.6,5.3,135.2,6.1,135.2z M10.4,149.8c0.6,0,1.1,0.5,1.1,1.1h0.6c0-0.9-0.8-1.7-1.7-1.7s-1.7,0.8-1.7,1.7h0.6
		C9.3,150.2,9.8,149.8,10.4,149.8z M4.4,150.8H5c0-0.6,0.5-1.1,1.1-1.1s1.1,0.5,1.1,1.1h0.6c0-0.9-0.8-1.7-1.7-1.7
		S4.4,149.9,4.4,150.8z M11.5,146.5c0-0.6,0.5-1.1,1.1-1.1v-0.6c-0.9,0-1.7,0.8-1.7,1.7s0.8,1.7,1.7,1.7v-0.6
		C12,147.5,11.5,147.1,11.5,146.5L11.5,146.5z M6.5,146.5c0,0.9,0.8,1.7,1.7,1.7s1.7-0.8,1.7-1.7s-0.8-1.7-1.7-1.7
		S6.5,145.5,6.5,146.5z M8.2,145.4c0.6,0,1.1,0.5,1.1,1.1s-0.5,1.1-1.1,1.1s-1.1-0.5-1.1-1.1C7.2,145.9,7.6,145.4,8.2,145.4z
		 M4.9,146.5c0,0.6-0.5,1.1-1.1,1.1v0.6c0.9,0,1.7-0.8,1.7-1.7s-0.8-1.7-1.7-1.7v0.6C4.5,145.4,4.9,145.9,4.9,146.5L4.9,146.5z
		 M10.4,143.2c-0.6,0-1.1-0.5-1.1-1.1H8.7c0,0.9,0.8,1.7,1.7,1.7s1.7-0.8,1.7-1.7h-0.6C11.5,142.7,11,143.2,10.4,143.2z M6.1,143.2
		c-0.6,0-1.1-0.5-1.1-1.1H4.4c0,0.9,0.8,1.7,1.7,1.7s1.7-0.8,1.7-1.7H7.1C7.1,142.7,6.6,143.2,6.1,143.2z M10.4,158.5
		c0.6,0,1.1,0.5,1.1,1.1h0.6c0-0.9-0.8-1.7-1.7-1.7s-1.7,0.8-1.7,1.7h0.6C9.3,158.9,9.8,158.5,10.4,158.5z M4.4,159.5H5
		c0-0.6,0.5-1.1,1.1-1.1s1.1,0.5,1.1,1.1h0.6c0-0.9-0.8-1.7-1.7-1.7S4.4,158.6,4.4,159.5z M11.5,155.2c0-0.6,0.5-1.1,1.1-1.1v-0.6
		c-0.9,0-1.7,0.8-1.7,1.7s0.8,1.7,1.7,1.7v-0.6C12,156.2,11.5,155.8,11.5,155.2L11.5,155.2z M6.5,155.2c0,0.9,0.8,1.7,1.7,1.7
		s1.7-0.8,1.7-1.7s-0.8-1.7-1.7-1.7S6.5,154.2,6.5,155.2z M8.2,154.1c0.6,0,1.1,0.5,1.1,1.1s-0.5,1.1-1.1,1.1s-1.1-0.5-1.1-1.1
		C7.2,154.6,7.6,154.1,8.2,154.1z M4.9,155.2c0,0.6-0.5,1.1-1.1,1.1v0.6c0.9,0,1.7-0.8,1.7-1.7s-0.8-1.7-1.7-1.7v0.6
		C4.5,154.1,4.9,154.6,4.9,155.2L4.9,155.2z"/>
	<path class="st4" d="M10.4,152.5c0.9,0,1.7-0.8,1.7-1.7h-0.6c0,0.6-0.5,1.1-1.1,1.1s-1.1-0.5-1.1-1.1H8.7
		C8.7,151.8,9.5,152.5,10.4,152.5z M6.1,151.9c-0.6,0-1.1-0.5-1.1-1.1H4.4c0,0.9,0.8,1.7,1.7,1.7s1.7-0.8,1.7-1.7H7.1
		C7.1,151.4,6.6,151.9,6.1,151.9z M11.6,167c-0.2-0.2-0.4-0.3-0.7-0.4L11.6,167z M11.5,163.9c0-0.6,0.5-1.1,1.1-1.1v-0.6
		c-0.9,0-1.7,0.8-1.7,1.7s0.8,1.7,1.7,1.7V165C12,164.9,11.5,164.4,11.5,163.9L11.5,163.9z M9.9,163.9c0-0.9-0.8-1.7-1.7-1.7
		s-1.7,0.8-1.7,1.7v0.2l1.1,0.6c-0.3-0.2-0.5-0.5-0.5-0.8c0-0.6,0.5-1.1,1.1-1.1s1.1,0.5,1.1,1.1S8.8,165,8.2,165
		c-0.1,0-0.2,0-0.4-0.1l1,0.6C9.5,165.2,9.9,164.6,9.9,163.9z M5.5,163.5c-0.2-0.8-0.8-1.3-1.7-1.3v0.4L5.5,163.5L5.5,163.5z
		 M10.4,161.2c0.9,0,1.7-0.8,1.7-1.7h-0.6c0,0.6-0.5,1.1-1.1,1.1s-1.1-0.5-1.1-1.1H8.7C8.7,160.4,9.5,161.2,10.4,161.2z M6.1,160.6
		c-0.6,0-1.1-0.5-1.1-1.1H4.4c0,0.9,0.8,1.7,1.7,1.7s1.7-0.8,1.7-1.7H7.1C7.1,160.1,6.6,160.6,6.1,160.6z M3.4,133.3l-0.9-0.5
		c0.2,0.2,0.3,0.4,0.3,0.7h0.6V133.3z M1.7,132.4c0.1,0,0.2,0,0.3,0.1l-1-0.6c-0.6,0.3-1,0.9-1,1.6h0.6
		C0.7,132.9,1.1,132.4,1.7,132.4z M1.7,141.1c0.6,0,1.1,0.5,1.1,1.1h0.6c0-0.9-0.8-1.7-1.7-1.7S0,141.2,0,142.1h0.6
		C0.7,141.6,1.1,141.1,1.7,141.1L1.7,141.1z M2.2,137.8c0,0.9,0.8,1.7,1.7,1.7v-0.6c-0.6,0-1.1-0.5-1.1-1.1s0.5-1.1,1.1-1.1v-0.6
		C3,136.1,2.2,136.9,2.2,137.8L2.2,137.8z M1.2,137.8c0-0.8-0.5-1.4-1.2-1.6v0.7c0.4,0.2,0.6,0.5,0.6,0.9s-0.2,0.8-0.6,0.9v0.7
		C0.7,139.2,1.2,138.6,1.2,137.8L1.2,137.8z M1.7,135.2c0.9,0,1.7-0.8,1.7-1.7H2.8c0,0.6-0.5,1.1-1.1,1.1s-1.1-0.5-1.1-1.1H0
		C0,134.4,0.8,135.2,1.7,135.2z M1.7,149.8c0.6,0,1.1,0.5,1.1,1.1h0.6c0-0.9-0.8-1.7-1.7-1.7S0,149.9,0,150.8h0.6
		C0.7,150.2,1.1,149.8,1.7,149.8L1.7,149.8z M2.2,146.5c0,0.9,0.8,1.7,1.7,1.7v-0.6c-0.6,0-1.1-0.5-1.1-1.1s0.5-1.1,1.1-1.1v-0.6
		C3,144.8,2.2,145.5,2.2,146.5L2.2,146.5z M1.2,146.5c0-0.8-0.5-1.4-1.2-1.6v0.7c0.4,0.2,0.6,0.5,0.6,0.9s-0.2,0.8-0.6,0.9v0.7
		C0.7,147.9,1.2,147.3,1.2,146.5L1.2,146.5z"/>
	<path class="st4" d="M1.7,143.8c0.9,0,1.7-0.8,1.7-1.7H2.8c0,0.6-0.5,1.1-1.1,1.1s-1.1-0.5-1.1-1.1H0C0,143.1,0.8,143.8,1.7,143.8z
		 M1.7,158.5c0.6,0,1.1,0.5,1.1,1.1h0.6c0-0.9-0.8-1.7-1.7-1.7S0,158.6,0,159.5h0.6C0.7,158.9,1.1,158.5,1.7,158.5L1.7,158.5z
		 M2.2,155.2c0,0.9,0.8,1.7,1.7,1.7v-0.6c-0.6,0-1.1-0.5-1.1-1.1s0.5-1.1,1.1-1.1v-0.6C3,153.5,2.2,154.2,2.2,155.2L2.2,155.2z
		 M1.2,155.2c0-0.8-0.5-1.4-1.2-1.6v0.7c0.4,0.2,0.6,0.5,0.6,0.9S0.4,156,0,156.1v0.7C0.7,156.6,1.2,155.9,1.2,155.2L1.2,155.2z
		 M1.7,152.5c0.9,0,1.7-0.8,1.7-1.7H2.8c0,0.6-0.5,1.1-1.1,1.1s-1.1-0.5-1.1-1.1H0C0,151.8,0.8,152.5,1.7,152.5z M3.9,162.5v-0.4
		c-0.2,0-0.4,0-0.5,0.1L3.9,162.5L3.9,162.5z"/>
	<path class="st4" d="M1.7,161.2c0.9,0,1.7-0.8,1.7-1.7H2.8c0,0.6-0.5,1.1-1.1,1.1s-1.1-0.5-1.1-1.1H0c0,0.4,0.1,0.7,0.3,1l1.2,0.7
		H1.7z"/>
</g>
</svg>
